<svg version="1.2" xmlns="http://www.w3.org/2000/svg" viewBox="0 0 768 768" width="768" height="768">
	<style>
		.s0 { opacity: .28;fill: #dff9f9 } 
		.s1 { opacity: .61;fill: #dcf8f8 } 
		.s2 { opacity: .97;fill: #55c5cd } 
		.s3 { opacity: 1;fill: #9ce2e3 } 
		.s4 { opacity: 1;fill: #16777a } 
		.s5 { opacity: 1;fill: #cff8f8 } 
		.s6 { opacity: 1;fill: #84babd } 
		.s7 { opacity: 1;fill: #6d8c99 } 
		.s8 { opacity: 1;fill: #2e797d } 
		.s9 { opacity: 1;fill: #0c787d } 
		.s10 { opacity: 1;fill: #e7fafa } 
		.s11 { opacity: 1;fill: #027b83 } 
		.s12 { opacity: 1;fill: #36716e } 
		.s13 { opacity: 1;fill: #558f8d } 
	</style>
	<g id="Background">
		<g id="Background">
			<path id="Path 0" fill-rule="evenodd" class="s0" d="m327 0h1v1h-1zm121 0h1v1h-1zm-159 8l6-1v1zm-25 8l5-1v1zm347 50l2-1-1 2zm-483 30l1-6 9-3zm532 10l2-1-1 2zm-555 10l-1-3h4v1zm3-3l3-1-1 1zm-21 24l4-3-3 3zm-7 3v-3h3l-1 2zm687 150l1-6v6zm-767 37h1v1h-1zm718 36l2-1-2 6zm-688 17l1-5 5 1h1l4 2-2 2-5-3-3 3zm3 4l2-2-3-1 5 2zm51 12l-1-2h3zm669 6l4-1v1zm-14 11l-2 1 1-6zm27 66l1-1-1 6zm-757 13l-1-5h1zm753 4v-4h1zm-5 13l1-1-1 3zm-12 31l2-2-3 4zm-6 14l5-11v6l-4 5zm-708-2h-3l3-1zm15 29l-3 1 1-4zm574 118l1-1 1 1-2 1zm-111 60l2-1h1zm-31 7h1v1h-1z"/>
			<path id="Path 1" fill-rule="evenodd" class="s1" d="m482 10l-1-2h8l2 3-2 1zm-271 28l5-3v2zm-18 7l-1-2 3 1zm387 2l-4-3h4zm9 7l1-1 7 5h-2zm63 48v-2l2 2-1 1zm-540 9l2-6 5-2v1zm-21 23l-1-5 6-2v1zm596 5v-2l5 1 1 7 6 9 5 2 2 6-2-1zm-619 21l7-8 1-6 4-1v2l-10 13zm-15 24l-1-2 2 1zm669 4l-1-4 3 1v4zm-673 2v-4l2 1zm692 34l2-1 1 7h-1l-2-5zm-714 7l-1-2 2 1zm-15 44v-7l8-17v5l-6 18zm743-14l1-5 4 14h-2zm-752 51l2-7 1 1-1 5zm722 58l-3-11h2l2 9zm-682 2l2-1-3 6zm29 18l-5 1 1-3-4-3 3-3 1 2 2 3zm630-4v-3l2 9-21 4v-1l20-5zm-685 4l13-3h1l-3 4-12 1zm727 3l-5-3h1l3 1zm-716 9l-1-2 4 3zm39 3l-1-5h12l-9 2-1 3zm619-4l16 1 1 4v1l-17-5zm-635 27l1-9 6-8v1l-1 2-2 8-1 5zm662-11l-1-1 2 1zm9 20l7-21v2l-2 9-3 9zm-717 38l-3-17h2l4 20v2l-1-3zm20 60l-5-13 2 1 4 11zm686 68l7-11h1l-7 13zm-655-7l-1-3h1zm31 41h-3v-3l3 2zm591 7l4-3 1 4-7 3zm-5 6l3-2v4l-4 2v-2zm-564 14l-4-1-3-10 7 7zm72 55l-18-11-3 1v-4l-9-7h1l29 20zm396 8l12-7h1l-1 4-12 5zm-335 23l-26-9-18-12h2l43 20zm281 2l37-16h2l-11 5v3h-7l-21 9zm-267 4l1-2 19 6 1 2zm33 10l-3-1h2z"/>
			<path id="Path 2" fill-rule="evenodd" class="s2" d="m428 0h-2l2 1zm-121 768l-2-1v1z"/>
			<path id="Path 3" fill-rule="evenodd" class="s3" d="m334 2v-2h13zm94-1v-1h11v2zm39 5l2-1 12 3 1 2zm-218 16l2-3 13-3h5l-20 7zm-144 94l3-2v2l-12 12v-1zm654 157l-1-3h2v2zm-754 32l4-17h2l-5 18zm763 4l-2-7h2zm-768 33v-4h1zm717 21l3-14 3 2 1 8h-3l-1 3-2 1zm8 7l1-2 3 12h-1l-3-5zm-688 6h4l1-4h1l-1 5-1 1zm707-1l2-1-1 2zm-672 15l-2-3 16 4-1 1-6-1-5-1zm-72 6v-3h2v3zm676 4l-6-1 6-3zm56 17v-2l10 3h2l2 5-8-3zm-8 19l-2 11-4-9h2zm-724 12l2-2 2 12h-2v-2l-1-4-1-1zm767 20l1-3v3zm-758 19l1-1 12 37-2-1-1-1-2-6-7-16 1-6-2-1zm747 22l6-18v6l-1 3v2l-1 3-2 3-1 1zm-116 86l3-1 8 14h-3zm-45 40l3-10 3 1-2 9zm-119 131l6-2v2zm-8 2l3-1v1z"/>
			<path id="Path 4" class="s4" d="m739 407l9-2-5 9zm-706 9l8-3 1 5zm671 4l6-4h2l1 1 1 5zm-73 172l5-2 4 5 8 13-2 2-8-3v-10l-7-3zm-3 56l1-6 3 2-1 4zm-30 5l2-2 12 6-4 7-7 3z"/>
			<path id="Path 5" class="s5" d="m327 1l1-1h6v2l-31 5v-1l4-2h4 2l7-2zm-55 11l17-4h6v1l-26 7v-1-2zm-27 11l4-1v1l-33 14v-2l20-9 3-1 2-1zm-34 15l5-1-27 15-1-2 5-3v-2l2-1zm-45 26l10-8 8-2v1l-44 31 2-4 2-1 1-1 1-1 1-2 2-1 14-10 1-1zm487 39l1-1 6 4 1 1 6 8 2 2 1 2v1zm-571 36l5-2h1l-8 10v-2-5zm-25 38v-4l11-13h2l-25 40-19 40v-1-2l1-4v-2l1-1v-2l2-1 9-20 1-3 9-14 2-3 1-1 1-2 1-1v-1l1-3 1-2zm665 12v-1l2 1 5 11v1zm33 72l-12-31h1l6 12 1 3 1 3 1 3 2 2v1l1 1v1zm-731-20l1-1h1l-6 16v-5l-1-3zm735 32l1-1 3 8 1 4 1 7h-1zm-756 39l2-1-4 27h-1v-10l1-1 1-7v-4zm39 60l8-27 7 30 4 1 13-6-6 14-1-2 4-8-9 3-3 1-3-2-2-2-3-17h-3l-1 5-1 4-1 5-2 1zm668 8h3l4-17h1v5l-4 15-4-1zm-8 6l-6-12 8 3v2l-3-1 1 5zm27-6l15-5 1 1-5 14h-1l-2-7 2 1 1-4-9 4-3-4zm-699 7l-1-7h1 1l1 1 3 1-2 2-2 3zm-28 6l9-2v3l5 3v2l-14-3zm742 0l-1-2 17 4v2zm-5 14l-1-3 9-2h5 1 4l-9 3zm-1 1l1-1 4 7 1 4h-2l-3-5zm-696 10l-1-5h1l5 16 1 3 1 3 2-7 3-1-6 16zm672 4l-1-5h1l5 10 1 11h-2zm-714 17v-5h1v5zm765 40l2-11h1v7l-1 1v2l-1 1zm-757 1v-2l2 8-1 1h-1zm737 60l11-31h1v2l-1 9-9 18zm-720-5l1-1 30 59h-1l-9-12-2-3v-4l-2-2-3-7-3 1 1-3-1-3-5-8v-1l-5-7zm693 57l21-38h1v6l-4 1-3 12h-3l1 3-7 9-1 3-4 4zm-87 0l-1-3 10-10-1 6 4 9-3 1-4-5zm-575 4v-3l20 28h-3l-6-8-2 1v-5zm631 38l24-31 1 2-16 22-2 2-5 5zm-34-15l2-3 9 14h-5zm-55 6l6-6 2 3-5 4zm38 9l4-2-1 3zm-549 3v-1l15 17h-6l1-3-8-6zm533 12l7-7h2l-1 6-6 7zm-57 11l7-13 10-3v6h-8l-4 4v6zm58 38l51-46v2l-3 4-3 2-8 10-2 2-5 4 2 3-5-1-1 6-9 2-2 2-2 5-12 6zm-501-26v-1l32 27h-1l-15-8-4-8-9-4zm471 6l5-6 2 2-6 6zm-58-2l2-3 2 2-3 3zm19 26l7-4 1-8h5l-6 13-7 3zm37 18l31-21v1l-1 2-6 7-13 5-2 5-8 1zm-408-1v-1l19 11h-2l-12-6-2-1zm379 17l17-9v2l-15 7zm-78 28l29-8v2l-2 1-24 7h-2-1zm-194 1v-1l17 3v1h-10l-1-1h-1l-1-1h-3z"/>
			<path id="Path 6" class="s6" d="m184 54v-4h4l1 2-5 3zm-76 60v-1h2l-2 3zm-51 300l1-2 1 1z"/>
			<path id="Path 7" fill-rule="evenodd" class="s7" d="m768 396h-2l2 1zm-39 22l3-1v-2l-3 1z"/>
			<path id="Path 8" class="s8" d="m593 648l3-3 4 6-2 2zm-34 23l4-2 9 12-7 5v-6z"/>
			<path id="Path 9" class="s9" d="m78 400l10-2-1 7-10 1-5 6-4-7 1-3zm-21 14l2-1 9 4-4 5h-9zm672 4l3-1 6 3-6 8-5-1zm-104 179l6-3 7 3v10l-13-4zm-9 19l4-2v-4l18 5-11 3-4 5zm-15 10l5-4h6l15 16v4l-7 7-12-2-9-12zm66 14l1-1 10 5-2 4-3 2zm-130 35l5-1v12l-4 1-4-9z"/>
			<path id="Path 10" class="s10" d="m439 2v-2h9l1 1 8 1 3 1 9 2-2 1zm-144 5l8-1v1l-8 2v-1zm194 5l2-1 12 1 6 4 5 1h1l3 1 33 15h7l3 4 4 1 8 5h2l1 1 4 3 1 1 2 1 2 1 2 1 1 1 2 1-1 1-49-25zm163 90l-57-44h2l14 8 1 1 15 10 2 1v3l7 3 4 6 4-2 3 9 5 3zm-533 1l4-7h5l-9 8zm551 17v-1l7 4 10 14v2zm52 69l-18-28 2 1 4 2-1 3 11 16 1 1 1 4zm7 12v-1l5 4 6 14 1 2v4 1zm-717 74l2-1-3 14h-2zm754 16l1-1h1v12h-2l-2-11h1zm-737 89l-5-10 12 5v1l-5-1-1 5zm675-1v-2l6 3v2l-3 1zm-693 12l6-1-1 2-5 2zm74 1l1-1 14 3-12 4-10 2 3-1-1-3h4l2-2zm591 4l7-1v1l-4 2 4 2 3 1v1l-10-2zm84 1v-2l6 1 2 1v3l-11 2v-1zm-744 2v-2l11 3 1 2zm17 17l-9 3 7-16 3 2-4 3 1 4 7-2 2 1 2 2h-1zm32-5l2-6h1l4 7 2 7-6-2-9-4-1-1v-1l2-2 2 2zm-65 37v-9h1l1 7zm762 43l3-12h1v5l-3 8h-1zm-158 128l1-4-9-9-8 2 6-12 22 20 7 7 13 11 3 1-7 9-3-2h-2v-4l-15-16h-6zm16-9l-6 2v-3l11-12v6l13 4 8 3 2-2h3l4 8-2 3-15-4zm-546 14l-1-3h3l11 15-3-2-2-2-4-2-1-1-2-3zm593 16h-7l-1-10h5l4 9zm15 1l5-7h2l-2 7zm-86 4l-1-10h4l9 12 12 2 2 6-10 2-12-6zm-16 5v-6l13 4 5 5 3 14-3 7-2-2-4-13zm-28 56l-10 3-25-44-8-1 10-9 10 19 4 2 1 2 4 9 5 11 4 4h5zm-443-42v-4l11 11v1zm454 5v-9h5l3 8 8 8 12 2 1 2-7 4-13-3zm-28 4l6-6h12l6 4 6 9v6 4h-5l-7-14-11-2-5 1zm-293 77l1-1 14 5-1 2-4 2-4-6zm269 6l12-4v1l-5 5h-6-1zm-234 6l-1-2 12 4v1h-2l-3-1zm194 5l5-1h2v1l-1 1h-6z"/>
			<path id="Path 11" fill-rule="evenodd" class="s11" d="m334 2l13-2h79l2 1 11 1 28 4 15 4 7 2 51 17 49 25 6 4 57 44 18 18 17 19 17 22 18 28 7 12 12 24 2 5 12 31 4 12 5 18 2 11 2 7v87h-2l-6-1-17-4-3-1 5-14 1-2-2 1-15 5-3-12-2-9-1-8-3-2-3 14-4 17h-3l-6-3-8-3 6 12 1 4-20 5-7 1-6 3 6 1 10 2 17 5-7 16 8-3 10 2 4 16 4 9 2-11 3-9 5 1 6-8 8 3-2-5-1-4 5-9 9-3 11-2v65l-1 3-2 11-3 12-6 18-11 31-1 2v1l-5 11-21 38-7 11-24 31-5 7-4 3-10-5-4-9-9-14-4-8-8-14-4-9 1-6-10 10 1 3v2l-6 3-11 12v3l6-2v4l-4 2-22-20-6 12 8-2 9 9-1 4-6 6-3 10 1 10-3 3-13-4-10 3-7 13v9l-4 2-6-4h-12l-6 6-2 3-4-2-10-19-10 9 8 1 25 44 10-3 7-3 6-13v-4l7-5 13 3 7-4 6-6 3-7 7-3 4-7 10-2 6-7h3l1-4 7-9 1-3-4 2-13-11 4-5 11-3 15 4 6 11 1 10h7l6 10-1 2-51 46-1 1-31 21-12 7-17 9-37 16-12 4-29 8-6 2-5 1-3 1h-161l-2-1-17-3-12-4-19-6-14-5-43-20-19-11-29-20-32-27-18-18-15-17-11-15-20-28-30-59-4-11-12-37-2-8-4-20-2-12-1-7v-5l-1-1v-37h2l14 3 12 3 3 1-7 16 9-3 9 2 6 25 6-16 1-5h9l4-5 6 2-2-7 5-6 10-1 1-7 12-4-14-3-16-4-2-3 6-14-13 6-4-1-7-30-8 27-1 4h-4l-1-1-12-5 5 10 1 7-13 3-6 1-9 2h-2v-51l1-4 4-27 1-5 5-18 3-14 6-18 6-16 19-40 25-40 10-13 8-10 3-3 5-6 12-12 2-3 9-9 9-8 10-9 2-1 44-31 5-3 27-15 33-14 20-7 26-7 8-2zm51 29l-2-3-1 5-1 3v4l-2 3v3l-2-1h-1l-8-5-2 2 5 5 3 1h-3v1l-3 3-2 1-4 3h-4l-15 3 11 3 7 2 7 3v6l-2 6 2 1 4-4-1-2 3 1 8 2 1 13 1 1 1 3v2l4-2v-3l1-4 3-11 2-2-1 2 10 1-1-12 16-2-1-3h10l-4-3-15-3-3-1-4-1v-5h1v-3l2 1-1-4-4 1-2 1v3h-3l1-3-4-5-1-5-2-7-3-3-1 4zm-26 81l-7 1-15 3-9 2-5 1h-4l-15 4-1 3-4-1-4 1 1 2-2-1-6 1-4 5-14 4-2 4-2-2h-1l-3 1 1 4-5-1-6 5h-5l-2 4-14 7-3 6h-6l-3 5-5 1 2 3-7 2-13 14-1 2-3 1-10 8-2 6-4 1-1 5-4 1-6 9 2 3-2 1-2 2-11 14-1 3-7 10-2 10-6 4v3l-1 3-2 10-6 7-3 9-1 2v4l-2 6-1 2-1 4-4 23-1 4v1l-1 3v1l-1 15-1 20 3 1h47l7-1h24l6-1-1 2 3 1h33l18-1 3-2-2-2v-5l1-2 2-2v-2l2-16 1-6 5-17 4-4v-2l1-1 1-3 1-1 3-9 5-2v-5l-1-3 3 2 3-3 8-11h3l7-8 3-1 2-5 7-1 2-4 11-4 5-3 2-2 28-9 10 1 4-1v-70l1-25v-47l-11-1zm29 24v61l1 4 2 2 1-7 1-6 1-17v-4l1-13v-13l3-4 2-3 8 1 2 11-2 6v18l-1 8v1l-1 5-1 9-1 6v23l-1 3v4l2-1v4h-2l5 3 5 1h3l2-7 4-13 4-10 1-7 11-30 1-3 4-20 7-1 4-2 4 3-1 9v3l-2 4-7 20-1 4v1l1 5-2-3-1 3-2 5-1 5-4 14-1 5-4 8-1 4 1 4 1-3 3-5 1-2 2-3 5-15 4-7 1-3 6-11 1-1 3-12h3l5-11 3-10 6-1 5 5 2 7-12 20-1 10-2-1-3 9v5l-4 3-7 11-2 11v3l-2-1-2 3v3l1 3-2-1h-2l4 5 5 2 2-2v-3l2 1 5-9 2-3 3-5 2-3 3-10h-2l2-1 6-2 1-7 7-10 1-1 8-14 1-2 6-9 7-4 11 8 9 3 15 14h2l1 3h1l1 1 1 2 8 4v4l5 1 3 7 2 2 6 3v3l7 4 1 5 5 1 1 6 10 12 2 5 1 2 2 3 7 8 1 4v2l7 10 6 18 6 17 1 4 2 7 1 3v1l1 3 2 8v1l2 8v8l-1 8v4l-6 1-4-7-1-4-2 3v-5l-1-9v-7l-1-4-2-12h-4l1-3-1-4v-3l-5-18-7-15-3-2-1-5-15-21-1-3-1-4-2-2-2-5-10-7-5-9-3-3-2-3-3-2-2 1 1-3-23-20-4-1v-1l-3-4-2-2h-4l-6-4 1-2-6 1-27 46v4l-4 1-2 5v2l-6 8-2 3 2 7h4v3l9 3 11 12 5 1 7 11 1 3 4 8 5 2 5 11 1 2 8 14 2-1-1 3 3 8 1 5 6 22 6 1 3-1h16l6-1 3-2v-3l-4-18-1-6-8-22-5-13-13-17 3-5-2-2 5-3 7 2 1 3v4l5 2 5 12 3 8 2-1 1 10 1 2 6 8-1 4 2-1-1 4 3 6 1 3v2l2 12v1l1 1v1l1 8 1 3-1 8h-3l-5 3-7-1-5 1-7 1-19 1h-11l-3-1-1-2v-8l-1-3-4-19-5-15-5-9-2 2-1-6-1-4-10-11 1-3-3 2-3-2-1 2 11 17v5l4 6 4 10 1 3v3l2 8h3l-2 8v1l1 4v9l1 6 17 2h29l75 2h14l1-1 5-1-1-37-1-3v-3l-1-3-2-21-4-9-1-5-1-2-2 1 1-3v-1l-1-3-1-2-3-11h-3l1-3v-1l-1-4-2-2-3-7-1-3-4-8-2-2-1-2-1-4-7-10-1-3-1-2-9-2-1-12-2-2-10-13-2 1v-3l-10-7v-4l-25-22-2-2-2-1-1-1-20-15-2 2-3-6-8-2-2-4-7-2-6-1 1-2-10-5-19-8-14-2-2-3-33-6h-3l-26-4h-9l-2 1zm225-12l-1 4-1 2-2 9-11-4-1 1 4 5-2 2v6l-2-2-1 3h-6l-3 1-4 1h-2l-1 4 4 2 6-1 9 4 1 6-3 5 3 2 2-2 2-1h7l4 20 2 3 2-5 5-15v-4l3 1h1l2 1 3 1 1-6-2-2 2-1 5-4 4-1 9-2 4-1 2-1-2-2-5-1-15-1-4-4 4-10h-5l-2 1-4-1-2-1-1-2-4-19-3 3zm-462 1v1l-1 3-2 9h-10l-4-4 1 6 1 1 2 7h-2l-2 4-3-2v2l-4-2h-3l-4 4h-6l1 2 6 1 4 1 12 5-3 6 1 5 4-2-2-1 2-2 6 1 2-1 2 4 2 11 3 12 6-20 2-4h2l7-2 2 3-4-7v-4l3 1 1-3 9-2 4-1 9-1v-3l-16-4-6 1-2-5 1-5-2-3-8 1-1-3-1-5v-1l-4-5-1-5v-1h-3v4zm235 125v2l2 4h1l2-2 13 2 7 1 5 1 18 6 5 1 13 4 8 7 8 6 3-1-1 3 3 2h3v3l2-1 7 11 6 1v4l3 3 2-2v-4l-1-2-1-1-2 1v-3l-4-4h-1v-2l-3 1-10-12-11-9-4 1 1-2-10-5-5-2-2-2-3-2h-1l-1-1-6-3-19-4-3-1-14-1-6-2v-1l-3 1zm83 58v3l6 8 4 3-8 15 0.75 1.5 5.25 1.5 5-1h6l-1 2 6 7 1 12-7 3-4 9 15 5v22l-4-1-7 4-5 1v3l1 1 3 2 1 1 8 5-1 9-7 9-4 3-3-2-8-1-3 2 4 8 3 3v1l1 6 1 2-2-1-8 10-4 2-15-6-3 2 1 3 1 4 1 10-6 7-6 2-7-2-1-1-9-8-4 6-2 13-8 4h-8l1-2-5-2-4-10-4-2-4 1-6 15-2-2-2 2-6-2-5-1-4-1-1-4-3-1 2-1v-8l-4-5-8 7 1 2-5 1-9-2-2-1-2-2-3-1-1-7 1-6 1-1 1-3-1-3h-3l-13 3h-6l-5-8-1-3v-3l1-4 3-6 1-3-1-4h-4l-4 1-9-1v-4l-2 1v-4l-2-7v-4l7-5 5-3-3-7-13-2-2-6v-7l1-6 1-3 15-5v-3l-2-2-6-2-4-6-1-6 5-9 5-6 8 3 8-4-8-12v-4l2-3v-4l-2-1-3 3-5 10-7 6-1 10-7 12-1 5-4 19v24l1 3 4 18 4 14 2-1 4 13 1 1 4 3 1 4 4 1v5h4l1 3 6 7 6 5 3 1 1 3 3 1 2 3 8 5 3-1-1 2 10 5 3 1 14 6 14 2 8 1 3 1h13l7-1 13-2 26-8 3-3 3-1 9-9 6-1 4-2 1-4 4-2 3-5 4-4 2-1 18-28 10-31 1-24v-3l-2-14-2-9-4-3v-8l-4-8-2-3v-1l-12-20-1-1h-2l-1-1-3-1 1-3h-3l-2 1zm2.75 30.5l-1.75-0.5 2 1zm-100.75-10.5l-10 3-3 2h-1l-6 7-7 2-4 8-5 2-1 3-8 20-1 3v17l9 25 3 2 1-2v5l4 1 2 5 19 12 4 1 5 2 6 1h19l1-1 23-9 2-2h1l7-9 2-2 7-8 1-4 4-12 2-14-1-10-1-4-6-15-1-3-7-7-2-4-1-1-4 1 3 12 2-1 4 10 3 2 1 8 1 4 1 6-1 14v6l-5 7v1l-1 2-1 1-3 7-12 9-2 2-9 5-25 2-13-3h-4l-11-9-5-5-8-7 1-2-4-6-4-13 1-19 1-3v-1l3-12 5-4v-3l2 1 4-7 4-1 4-3 7-4 6-4h7l8-1 14 1 10-2v-3l-14-4-20 1zm-12 21l-6 9-6 1-4 10 2 1-6 8-1 15 5 17 11 14 12 5-1 3h3l8 3 3 1h12l3-4 6 1 5-3 3-1 10-5 4-4 7-16v-3l3 1 1-10v-8l-2-9-4-10-5-8h-14v4l4 2 1 3 3 6 4 7-1 20-7 13-9 6-1 2h-6l-5 4-2-2h-12l-1 2-3-2-4 1 1-3-2-2-4-3-3 1-1-4-2-2-2-3v-1l-3-2-1-2-2-5-1-5-4-16v-3l1 2 3-3-3-2h4l6-3 3-7h4l3-2h2l4-5 4 1h2l10-2 3 2h2l6 1 3-2-1-5-2-4-8-2-3-1h-1l-5-1-16 4zm6 15l-5 10v2l2 2-4 3-2 14 2 5 3 3 6 8 18 5 7-1 4-4 3 1h1l3-2 10-14v-14l-1-7-7-10-13-7h-14zm-253 46v7l1 6 2 6v3l5 24v1l1 4 3 11h3l-2 1v2l3 9 7 10-1 5 6 12 1 1 6 7 1-2 1 2 1-2-10-17-4-15-1-4-4-6 1-8-1-2 2 1 3-3 8-4 4-1h2l4-2h1l4-1 9-5 5 1-2-2 5 1 1-9-6-24 1-8 13 1 1 18 1 5 1 3 1 4 4 4 7-1 8-2 13-4 11-2 2-2 5 3 1 11v1l4 2v4l4 10 2 2 2 3 4 10 10 11 12 15h6l-1 2 2 2 6 5h2v3l21 12 3 1 13 6 3 1 13 4 17 5h2l1 2v1l1 2-3 7-6-1-6-2h-4l-4-1-14-4-4-1h-3l1-2-4 1-1-3-2-1-7-2-4-4-10-2-11-10-4 2 1-5-4-3-3-4-2 1-1-4-1-1h-3l-12-15h-5l-17 11-7 7 1 5 4 2-1 3 5 7 4-3v7l7 4 1 4h5l10 12 8 5 6-3 1-3 3-5-1-2 2 1 1-1 2-4h10l14 8 12 5 4 1 5 3 4 1 6-2v4l17 3 2 1h1l1 2 1 1-1 7v1l-2 2h-15l1-2-4-2-4-1h-1l-3-1-5-1h-3l1-2-12-2-10-6-11-4-7 11 1 4-2-2-2 2-6 12-1 5 5 3 15 7h11l3 1-2 2 8 4 20 5 1 1 7 1h1l4 1 3-1 1 1 4 1 1 9-5 4-4-2-19-1-4-3-12-4-10-3-18-5-9-6-19-11v-8l6-8v-8l-12-5-2-6-12-12-6-2v-4h-3l-4-7-5-2-4-9-9 3-10 6-7 6-6 5 3 2-1 3 2-1v3l1 2 2 1 6 7 1 3 2 3h5l-1 4h4v4l7 4-1 2 22 17 9 3 3 6h5l37 20 3 1 3 2 4 1 9 2 1-1 2 2 18 6h6l8 1h4l1 1h4l3-1-2 3 2 2 3 1v6l-7 2-5 3 1 1h6l6 1 13 1 2-12v-122l-2-8-5-1-12-2-3-1h-7l-3-3-5-1h-4l1-2-4 1-1-3-15-7-4-5-6-4-3-1-9-7-1-3-1-2-11-8-3-9-3-2-1-3-6-8-1-4-9-23v-6l-1-4v-3l-1-4-4-1-5-1h-32l-8 1-4-1h-25l-9-1-6 2-3-2h-30l-16 1zm404 8l-1 10-4 4-5 17-8 14-4 2v6l-3-2-16 20-17 11-6 6-11 3 2 2-2 1-3-2h-2l-13 5-17 4-16 1-1 7-1 9v98l-1 8 2 21 19-1 7-1h1l5-1 4-1h2l8-1h3l4-1 1-1h5l5-1 8-3 3-1h2l-1-2h4l30-10-3-3 5 1 6-2 17-9 6-4-1-3 9-2 2-4h4l1-3 8-2v-4l4-2v2h1l2-4v-1h1l2-1 1-1 2-1 6-7-1-4 2 2 4-1 25-27 3-7 3 1 1-7 2 1 7-10 3-8-6 1-4-1h-4l-1 7-1-2-3 2-13 24-5 5-3-1h-9l-8-10-6-1v-3l-2-1-11-9-7-2 1 8 4-2-1 4 2 1 12 12h3l2 9 3-1 2 3 2 10-3 1-2 5-6 3-3 3 1 2h-3l-2 1v3l-13 7 1 2h-3v2l-3 2-12 5-3 5-7 1v3l-20 8-7 6-4-2-7 5-12 2-14 5-18 3-5 1-7 1h-22l-3-3-1-4 2-4 21-1h3l5-1 3-1 14-2 3-1 3-2h4l10-3 4-1 4-2 3-1 8-5 10-1 1-4 10-1 14-9v-3l6-1 1-2 6-3 7-8 3 1 1-1 3-4 1-1 2-1 1-1 6-5 2-2v-4l-12-11-2-3-11-9-12 10-2 2-4 1-14 11-4 2h-1l-1 2-19 11-9 1-5 6-29 4-7 3h-7l-14 2h-3l-1-3-1-9 13-1 10-1 8-1 3-1h1v-3l4 1 23-7 2-2 14-4 3-5 13-5 2-2v-1h2l3-2 9-7 1-1 8-5v-4h3l1-3-1-3-9-5-4-8-6-1-1-4-6-2-4 6-6 2-7 8-11 3-1 3h-4l-3 2 1 2-2-1-14 6-5 1-6 2-5 3-22 2-1 3-1-3-6 1v-9l4-2 20-3 2-2 27-10 3-1 1-1 23-12 3-6h5v-4l8-5 5-1 5 2-2-10 1-8 2 3 1-4 8-5-4-13v-5l3-5 5-9v-3l1-5 5-12 2-2 5 1 4-4 1-11 8-2 2 2 4 3-3 8 7 13 3 6-1 9-6 6-3 1 1 15-6 11-16 2-8 7 7 9 6 2-1 2 11 10 4-4h5l6-9-1-10-1-2-1-4-1-5v-15l6-10 4-12 7-5-3-4 4 3h1l1-1 5-4 6-2 2-11 1-3-1-4h3v-3l4-1h3l-1 2 2 2 2 4-1 6v1l-1 5 2 11 2-1v3l2 1-1 4v20l-2 4-1 5-2 8-5 6-4 12-5 2-8 2h-2l-3 1h-1l-3 7-6 3-3 9 4 3 2-1v3l4 4 5 1 9 10h3l6-1 11-22-2-11v-5l2-11 2 2 4-4 1-4 6-1-6-2 2-4-2-15 1-5 2-6 8-9 1-1h2l1-1 8-4 4-1 1-8 1-12 2-7 8-1 3 2-1 12-1 4v1l-1 5v2l-1 5 1 9 6 10-1 4v12l5-10 6-21 3-19 2-10v-14l-4-1-2-1h-63l-64-1h-7l-4 8zm12 30l8-1v-8l-7-1-3 8zm37 13l12 5 7-2v-15l-8-2-6 4zm-346-10l-10 2-13 6v4l1 3 10 23 1 2 7 9-1 3 4 1 2-1 21-14 3-6-7-13-4-12-3-6-1-3h-3l-3 1zm397 15v3l-2-1v6l2 6 7 4 4-5v-5l4 1 1-11-2-2-9-3-3 2zm-94 7h6l1-2-5-10h-6l-2 3 3 7zm-376 0l2 6 2-1-1 5 1 3 2 4 13 30 5 2-1 3 6 7 6-3 14-9 2-2 3-2 4-7-7-8-7-16-1-3-2-8-1-1-1-3-1-4-9-3-7 5-10 1zm414 17l7 5-1-3 7-4 4-9-13-5-3-1-3 1zm43 23l3 4 17-5v-9l-3-1-2-1h-4l-8 3zm-35 147v-6l4-4h8l12 9 4 13-5 6-12-2-8-8zm-26 14l11 2 7 14-1 8-7 4h-5l-4-4-5-11 4-1z"/>
			<path id="Path 12" fill-rule="evenodd" class="s0" d="m383 28l2-1v4zm-2 8v-3h1zm-15 7v-1l2 2zm32 0v3h-3l1-3zm5 4v-3l2 1zm-32 1v-1l3 1zm1 28l-1-2 3 1zm21 0l2-2-1 2zm-5 54l1-18-1 24zm-236-16h3v4h-3zm460 14v-4h1zm-318-1l1-1 1 2zm-123 18l1-5v4 1zm-40 5v2l-4-2zm508 10l4-1-2 1zm-5 7l-2-2 2-1zm-227 13v-8h1zm-14 10l1-17v12 5zm53 1l1-2 1 5zm-42 6v-2h1l-1 6zm-16 3v-3l1 4zm78 3l1-1-1 3zm8 15h-2l2-1zm-72 12v-3h1v3zm1 1l2-1v4h-2zm48 6l2-2v3zm-42 1l-1-1 5 1zm39 7l1-2 1 3zm-62 5v-4h1zm10-2l-6-2h6zm61 2v-3l2 1zm171 6l-1-4 2 2v2zm-239 0l2-2 13 2h-8zm22 2v-1l5 1v1zm28 8l-5-2 5 1zm-304 9l1-2-1 3zm341 14l-3-3h3zm11 3v-2l1 2zm279-2h1v1h-1zm-272 8l-2 1v-3zm-216 9l-1-3 3 2zm191 0l2-3 1 2-2 1zm25 0l2-2v1l-1 2zm156 0l-2 1 1-3zm2 7l-1-5 1 1v2zm-532 1l1-1-1 2zm392 9l-1-4h1zm111 7h-4l1-3zm-41 1l2-1-1 4h-1v-1zm54 6v-3l1 3zm-166 0l1-1 1 2zm-175 2l2-1-1 1zm-182 11v-3h1zm-1 6l1-5-1 15zm159-3l1-1-1 5zm246 6h3l-2 8zm112 5l-2 3v-5zm-362 15l-1-3h1zm297 4v-1h7zm-298 16l1-16v17h-1zm228-3l4-1v3l-4-1zm-342 5l1-1 6 1zm115 2v-3l1 3zm-89-1l6-1 1 1zm36 0l2-1 24 1zm-8 1v-1h8zm382 8l-2-2h3zm73 8v-7l1 5v2zm-404 2v-6l1 1zm333 7l1-4-1 5zm69 1l1-5v5zm-18 2v-4h1zm-453 6v-2l1 4zm375 2l-3-4 4 3zm-88 6l-2-3 3 3zm-302 5l-2-2 5 1v1zm112 1l-2-3 4 3zm-285-1h1v1h-1zm297 5l-1-3 1 1zm-164 10l3-3v1l-2 2zm468 3l1-5v5zm-469-2l-1-2 2 1zm482 1l2-2v3zm-123 1l3-2v4zm136 9v-4l4 1zm140-3h1v1h-1zm-619 4l2-1-1 5zm442 3l1-1-1 4zm-235 6v-6h1zm-29 2l3-1-1 2h-2zm441 2h1v1h-1zm-144 11l-3-1h3zm0 9v-8l1 7zm-252-6l-2-1 8 1zm67 4l3-1 2 2-2 1zm-101 2h-3l1-2zm-190 7l1-2 1 2zm305 24l1-1 1 2zm-133 2l-2-1h2zm7 4h-3l1-2zm-140 1l2-1v3zm241 2l2-1h1zm-69 5l-6-2 6 1zm214 32l-1-4 2 2zm-166 5l10-1v1h-9zm-98 11l-1-3 3 1zm245-1l4-2v2zm-158 3l1-2h1v2zm-58 9v-1l7 1zm187 10l3-2v1zm-25 13l-3-3 5 1zm-75 3l7-1-1 1zm-71 1l3-1-2 3zm63 1l5-1-1 1zm50 7l-1-2h4zm-119 8h-11l-2-2 3-3 15 2zm58-3h-11 4 4zm-113 110h1v1h-1zm2 1h1v1h-1zm183 0h1v1h-1z"/>
			<path id="Path 13" fill-rule="evenodd" class="s1" d="m575 43h1v1h-1zm5 4h1v1h-1zm7 4h1v1h-1zm-168 12l-1-3h4zm-256 2h1v1h-1zm215 11l4 1 1 13h-2l-1-4-2-9zm-233 3h1v1h-1zm244 12l1-4v1zm-24 21v-2h5 5l1 3zm35-1l3-1h9l3 1 9 1 2 3zm-289 0h1v1h-1zm227 3l12-2 2 1-15 3zm91 1l7-1 29 6 32 12v2l-19-8-14-2-2-3zm-130 9l19-6 1 1-15 4-1 3-4-1zm-156 14h-5l-4-4h3l5 2zm255 1l2-3 8 1 2 11-2 6-1-1 1-11-6-4zm-132 0l2-2h2l-2 4zm-52 31l25-19 25-13 1 1-3 1 1 4-5-1-6 5h-5l-2 4-14 7-3 6h-6l-3 5-5 1zm298-28l-6-1 1-2zm-376 6v-7l2 7zm398 6l-2 2-3-6-8-2-2-4h1l14 8zm-355-5l-6 1-2-5h1l7 3zm271-2l4-2 4 3-1 9-2-1v-8zm-11 21l4-20 7-1-8 18-1 2zm152-20l6-1-1 3h-6zm-475 3l5-1h3l-4 4h-6zm278 18l1-13h1v4 8zm84 0l3-9h1l2 7-12 20v-2zm-21 20l3-12h3l5-11v2l-9 21zm47-17l7-4 11 8h-2l-13-4zm-365 0l-2-1 2-2 6 1-3 1zm268 0l1-2v2zm217 2v-4l3 1v1zm-197 27l11-30v4l-8 25zm181-29v-1h3l4 20-2-1-3-10zm-24 23l-25-22 5 1 20 19zm-528-19h1v1h-1zm98 20l6-20v2 2l-4 15zm335 1l8-14v4l-6 10zm231-14h1v1h-1zm-669 3h1v1h-1zm353 1l2-1-1 9h-1zm104 1l1-1h2l-27 46v-3zm23 10l-3-4 3 1 1 1zm21 2v-1l8 4v4zm44 8l-2 1v-3zm-431 13l5-7h1l-6 9zm210 29v-35h1v35zm43-19l4-13v7l-2 6zm141-9l-2 1 1-3zm49 1l-2-2 2 1zm-583 16h1v1h-1zm-1 1h1v1h-1zm731 14h1v1h-1zm-126 4l-1-2h1zm-213 1v-1l9 3h-3l-5-1zm27 1l-3-2h2 1zm160 0v-2l2 3h-1zm-131 4v-1h4v3h-1zm-159 13l2-4 11-4v1l-11 7zm326 1l-3-7 3 1 1 3zm-26-1v-2l7 10 6 18h-2zm-49 41l-5-13-13-17 3-5-2-2 5-3 7 2 1 3-3-1-4-2-4 7 15 27zm80-30h-3l1-3zm-30 15l-7-15h1l6 14zm33-4l-3-11 2 1 3 8zm-364 4l8-11h3v2l-8 8zm-158-9l2-1-3 9-1-1zm445 10v-3l3 8 2-1 1 10zm-49 13l-8-13 5 2 5 11zm-229-3l1-3 2 1-3 3zm201 18l-12-20 13 19zm-198-8v-4 2zm217 0v-4l8 15v2l-5-9-2 2zm66 0l-1-4 6 8-1 4v2zm-320 27l5-17 4-4v2l-6 17zm248-20v-1l4 6h-2zm26 2l2-1-1 3zm93 10l-1-6 1 1zm-143-4h6l-1 2h-4zm154 2v-3h1l2 8h-2zm-149 20l5-3-5-17 6 7 1 12-7 3zm18 3l-2-9-4-3v-8h1l6 20zm81-13l1-5 2 12-2-1zm-331 22l2-16 1 3-1 8-1 5zm466-15h1v1h-1zm-431 13v-3h1zm299 4l3-3-1 8h-3v-2zm-71 8l1-1 1 6-2-1zm21 2v-1h1l3 1zm-266 7v-7l1 1v2zm-158-2l-1-2h47l-1 2zm118-1l18-1-4 1zm304 1h23l-1 2h-21zm30 2l-1-2 75 2v1zm83 1v-1h4v1zm-521 9l1-2h23v1l-1 1zm399 1l1-1h62l1 2zm80 1l1-2h7l8 2zm-402 0l-4-1h4zm61 2v-2h1l4 18-1 1zm229 30l10-31v1 3l-2 12-3 9-2 4zm-319 5l-6-24 1-8 13 1 1 18-2-3v-3l-1-5v-3l-1-4-7 1v5l1 7 2 17zm348-14l4-4 1-11 8-2 2 2-4 1-4 2-1 9-4 3zm105-5l2-7 8-1 3 2-1 12h-1-1l-1-12h-6l-1 6zm-90-2l4-5-3 8h-1zm51 0l1-2-1 6zm-308 9l-2 1v-4l2 1v1zm-170 4l2-1 5 24-3-3zm179 1l1-2h3v1zm188 0l-8-1h7zm-259 3l11-2-1 1-8 2zm326 2l1-3 3 6-1 9-6 6v-3zm45 2l2-1v3l-2-1zm47 0l1-1-1 5zm-343 9l1-4v2zm179-4h1v1h-1zm-233 7l-2-5 4 2v4zm410 10l4-14v2l-2 11-1 1zm-85-11l1-1h2l-5 10 12 5h-2l-13-4v-4zm-272 14l-10-14h2l1 4 4 1v5h4l1 3zm181-12v-1h1l1 2zm-179 2v-2l9 10h-4zm297-1l1-1v4h-1zm46 1v-2l6 10-1 4h-1l-1-1zm-490 2l4-2-2 3h-1zm87 12l-4-12 2 1 3 8zm279-9l1-1 9 1 5 10h-2l-5-10h-6l-2 3 3 7h-2l-2-6zm-225 18l-11-8-3-9 2 1 12 14zm-106-9l-1-4h1zm137 4l1-6v4zm-70-1v-4l4 10zm223 11l15-15h1l-16 20-17 11v-2zm125 11l1-4 6-1-6-2 2-4-2-15h1l1 12 6 7 2 3-5 2zm-475-22l-1-1h3zm414 1l3-1-6 11-16 2 1-2 13-2zm-350 8l-2-8h1l3 5v1zm-65-6l1-1 3 9h-1zm140 15l-8-12 10 11zm168-5l16-7h1l-6 7-6 2-7-2zm64 8l1-8 2 3 1-4 8-5-7 10zm-276 9l21-14v1l-19 13zm-69-9l1-4 13 30 5 2-1 3-3-1zm205-2l-3-1 2-1zm5 5l-4-1-1-4h2l3 3zm183 15l6-9-1-10 2 1 3 7-7 9zm-145-15l11-2 4 1-8 4h-8l1-2zm-69 11l-15-7-4-5h1l15 8zm83-4l26-8-21 8zm-142 8h-3l-12-15 2 1zm321-4l2-11 2 2zm-112 4v-4l8-5v2zm130 7l-9-6v-5l4-4h1l-3 9 3 4 17-5-3 4zm-217-12l7-1v2h-5zm160 11l6-10h3l-3 7zm-163 2v-2h7 5l4 1zm-84 18l-10-2-11-10-4 2 1-5-4-3h2zm-287-17h1v1h-1zm211 5l1-1 5 7h-1zm351 38l25-36h5v1h-4l-1 7-1-2-3 2-13 24-5 5zm-27-34l2-1v3zm-136 12l27-10-2 3-19 7zm-229-4l6-4h2l-7 6zm59 21l-10-10-6-2v-4h-3l-4-7 2 1 12 11 9 9zm208-20l5-3v1l-1 3h-4zm-146 3l-4-4 4 2zm-27 6l2-4h10l14 8h-3l-11-6-9 2zm117 9l-1 3-1-3-6 1v-9l4-2-1 3v5l5 1zm-119-7l-1-2 2 1zm223 3l8-5v1l-5 4zm-160 1l-14-4h5l8 2zm237 10h-9l-8-10-6-1v-3h2zm21-5l3-7 3 1-4 5zm-325-1l1-3v3zm212 5h1v1h-1zm-163 9l-12-2-10-6h4l18 7zm145 4l3-5 13-5v1zm-271-7v-1h5l-1 4h4v4l7 4-1 2 22 17-1 1zm361 1l3-1 2 3h-3zm-233 4h-3l1-2zm9 2l1-1 3 1v1zm38 74v-75l1 1v74zm115-72v-2h2 2zm-104 0l2-1v7l-2-1zm-27 3v-2h2zm-82 26l-19-11v-8l6-8v3l-2 12 15 10zm109-18l2-1v46l-1 8 2 21 19-1-1 2h-4-18zm42 2v-3l4 1zm-4 1l3-1v1h-1zm101 9l7-8 3 1v1l-5 5-3 1zm-131 3l-1-9 13-1h1l-1 2h-4l-7 1-1 4zm158-8l2-2 1 2zm-14 9l10-8h2v3l-13 7zm22-6h1v1h-1zm-155 7l1-2h5l1 1zm93 13l14-9v-3l6-1-1 2zm46-6l1-3 8-2-7 5zm-228-3v-1l4 1zm37 7l4 1 1 9-5 4-4-2 2-1 5-1-1-7zm134 7l1-4 10-1-10 5zm3 9l29-15h1l-3 5-7 1v3l-20 8zm-176-12l1-1 10 3 1 2zm-237 8h1v1h-1zm219 3v-1l4 1zm94 17l2-4 21-1-1 2h-3l-4 1h-3l-9 1 1 8-3-3zm38 3l12-2 6 1-18 3zm-12 4l1-1h6zm32 0l5-1v1l-4 1zm-32 5l5-1v1z"/>
			<path id="Path 14" class="s2" d="m0 433h1v1h-1z"/>
			<path id="Path 15" class="s3" d="m384 16l1-6 3 1v4zm5 10l1-2 4 16 7-1-1 3-2 1h-2l-4-5-1-5zm-24 17l-4-8 9 4-2 1-2 2v1zm-9 11l12-3v1l-2 1-4 3h-4zm50-1v-2l6 2-3 1zm-17 38l1-3h2l-2 6h-1zm226 18l3-4v4zm-265 3l15-2v2h-6l-7 1zm76 3l-2-3 12 2-7 1zm-305 35l14-4-7-16 9 4h-3l1 6 1 1v7l-2 4-3-2h-4-3zm265 32l1-52h1v6 39 6zm193-31l12-3-1 2-3 1-4 1h-2zm-471 5l-6-1 6-3zm426-2v-2l30 22-5-1-1-1-1-1-2-1-1-1zm36 2l-5-1 5-2zm64 8l5-4h2v1l-6 2 1 4h-2zm-195 4l2-1-3 8v-4zm-45 1l2-1-2 17v-12zm-234 7l2-4-2 6zm459 13l5-15-2 12-2 4zm-215-2l1-7 2 1-1 5zm122 5v-1l4 2 1 2-3-1zm-124 14l2-9v4 5zm20 12l4-10h2l-5 17h-1zm154 6l-6-7 6 3v3zm-176 7l1-5 1 1v3zm229 25v-2h1l9 18-3-1-1-3-2-4-1-2-1-2-2-2zm-218 2l-15-2h8l7 1zm241 54v-2h1l1 2zm-28 25l-1-6h1l2 7h-1zm-104 0v-2l6 13 1 4h-2zm-238 6l5-6 8 3h1v2h-3l-8-1-2 4zm195-3l5-1 1 2-6 1zm-367 17l2-10 1 1v3 1l-1 5zm148-6l3-2-3 11-1-3zm8 17l4-14h1v4l-4 19h-1v-3zm322-1l-1-10 2 1v1l1 1v1l1 8 1 3-3 3zm-81 11l-2-14h1l2 14zm-216-10v-3l3 2-1 7-17 4v7l-2 1-1-1 1-6 1-3 15-5zm277 2l6-1 1 1-12 2v-2zm-532 5h1v1h-1zm454 1l2-1 6 2v6 9 4l-4 1h-3l1-1 4-1v-9-8h-3zm73 6l13-2v2l-5 1h-7zm-23 2l15-2-2 3h-8-2zm-324 18v-2l29 1-2 2h-3zm408 2l-8-2h46l2 8-2 8-1-5v-4-3l-4-1-2-1zm-368 8v-3h1l2 8h-1l-1-1zm23 3l7-5h2l-8 6 3 11-2-1-2-7zm235 3l2-7h1l-1 7zm75 6l1-4h1v4 1l-1 4h-2zm71 1l1-5h1l-2 12v-2zm-31 9l1-12h2l-2 12zm-442 4l-3-13 2 3 1 5 1 3v2zm451 0l2-10h1v4 1l-1 5v2l-1 1h-1zm-159-5v-1h8v1l-4 3-3-2zm92 1l6-2v1l-11 7v-1-1zm-363 7l13-4 2 1-14 5h-1zm-31 0l1-1 2 11-4 1v-1-1zm391 9l8-6h7l1 4v1l-8-2-6 4h-2zm-43-2v-2h1l2 2v2zm-315 3l4-1v2l-5 1v-1zm257 12l8-13 1 3v1l-8 10zm-343 13l-7-23 3 3v1l1 4 3 11 1 1v2zm464 6l6-24h1v5 5l-2 4-1 5-1 4-1 1zm-336-9l-5-9h1l2 2 2 3zm279-2l-4 5h-5l-5-5h2l3 2h6l1-2zm-209 3l1-2h2v2l-1 5 4 1 11 6v1l-9-2-2-1-2-2-3-1zm293 9l-4-5v-6l3 2 2 6v3zm-155-1l4-2-4 4zm86 0l1-1 4 13-2-1-1-2-1-4zm-191 6l1-6h1l1 8v2h-2l-1-2zm153 8l3-4 1 1 7 9-1 1zm-147 1v-2h5l9 1-1 2-2 2-6-2zm-6 7v-1l14 2 2 1v2l-16-3zm45 2l13-2h5l-18 4zm159 2l2-4h7l-2 3-3 1h-1zm-138 6l15-5v1l-13 5zm-143 6l-3-4h1l4 4zm119-2l6-1-1 1zm-11 36v-30l1-6h3v2l-1 7-1 9v18zm129-16v-1l4 3-1 5-6 4v-1-4h3l1-3zm-171 5l2-2 17 5v1h-5zm72 1l2-2h6zm140 5v-3l4 4h-2zm-156 7l30-7-1 2-2 1-5 3-22 2zm-56-2l-1-2 15 2 2 1-2 1-6-1h-1-3zm15 25l2-3v2 1zm35 25v-3l2 4-1 2zm3 1l5-1h4l-1 2-7 1h-1zm156 3v-4h4 1 1zm-198 12l-19-4h1 7 1l4 1 3-1 1 1zm169 6l3-1v1l-11 7-9 4v-2zm-392 19l-2-4 4 2zm209-1l3-2h4l1 1h1 2 1l1 2 2 2-1 1zm71 2l1-2h3 4v1zm39 0l7-2h2v2l-14 5-6-1zm-34 8l7-2h4v2l-5 1h-6zm-9 8l7-1h1 5l1 1-15 2zm-197 4l1-4 10 5-3 2zm-42 11l-4-5 6 1z"/>
			<path id="Path 16" class="s4" d="m369 80l9-3 2 9-8-1-3-4zm73 85l8-18 5 1v8l-4 11zm29-1l2-5 6-1 2 2-3 9zm170-3l5-1v4l-7 7-3-4-1-4zm-479 11h2l6 4-10 4v-2zm343 4l2-4 13 4 14 11-4 6-4-2-15-9zm93 1l10-5 2 8zm-240 108v-5l4-2 14-1 1 5h-14zm123-3l6-5 26 27 8 13 13 31h-8l-6-13-8-15-15-21zm-187 12l9-7 5 7-15 17-2 2-3 2-8-3 6-10zm41-5l4-2 2 3-5 2zm93 4l5-6 5 3-1 4zm34 18l4-1 8 9 1 5-4 5-3-12zm160 10l8-1 6 21 1 5v2l-8 1-1-2-2-9-2-7zm-130 75v-10h4v9zm-317 15l7-1 1 4v3 5l-7 1-1-7zm356 13l1-9 4-2h4v7 3l-1 2zm51-9l8-1v6l-1 4h-8zm50 7l1-6h6l1 12-2 10h-8v-4zm-115 28l-2-10 3-6 9-6 2 8-5 5 1 5v2zm36 7l9-12 6 5v1l-1 1-5 6h-9zm49 12l5-12 5-4 4 7-5 12v6l4 5-6 5-6-7zm-417-3l-1-6h8l6 16-7 3-3-5zm279 14l6-4 5 8-17 14-9 4-4-8 15-10zm-106 12v-2h6l2 5h-5zm-158 5l6-4 10 14v5h-7zm400-2l6-2 4 7-5 4-4 4v5l9 6 1 8h-5l-2-3h-6l-6-11v-5l4-9 3-3zm-265 12l1-9 19 6v1l-1 9zm159 8l5-6 6 5 20 21-6 5-4-3-13-13-5-5zm-312 16l9-5 4 7v1l-6 4h-2l-6-5zm139 13l3-7 5 2v8zm-82 4l6-5 3 2 15 12 10 8-3 7-5-2-17-13zm273 1l6-4 5 5-13 11-5-5 2-3zm-154 5v-7h5v8h-3zm-239 20l-8-11 11-5h3l8 14-9 8 1 12-12 8-4-5 10-7zm66-10l5-5 10 10 35 31 12 8 19 12-5 6-36-22-20-17zm209 37l1-4 7-1v8l-5 1h-1zm-115 4l2-7 13 6-2 7zm248-4l3-1 5 6-6 4-7-4zm-387 26l8-10 4 1 2 6-7 7zm150 12l3-7h3l12 5v8zm159 0l8-2 1 7-7 2zm-305 15l-1-7 5-5 4 10h7l-4 6-8-1zm28-4l3-5h4l5 1 4 4-3 8zm222 6l-1-8 9-1v8l-4 1zm-214 28l-2-7 15-16 5 5-7 9-1 14zm26-17l5-1 8 3v7l-4 2-10-6zm-7 10l4-3 1 2zm69 12v-10l9 1v5l-3 5zm83 8l2-2 6 1v7l-2 6-4-1zm-91 14l8-4-3 10z"/>
			<path id="Path 17" class="s12" d="m564 314l-15-27 4-7 4 2 3 4v1l10 17 6 14 1 2 1 4-8 1zm76 57l-7 2-1-5h8z"/>
			<path id="Path 18" fill-rule="evenodd" class="s5" d="m370 39l8 2 2-8h1v3 4l-2 3v3l-2-1h-1l-8-5zm-2 28l-33-7 21-6 2 2-15 3 11 3 7 2zm56-10v-1l13 4-13 3-14 4h-4l-1 4 6 12-17-5-2 10h-2v-1l3-11h1l10 1-1-12 16-2 3-3h6zm-55 24l-8 3 7-15v4l-2 6 2 1h1zm14 20l-2-11h2l1 1 1 3v2l4-2h1l-1 6-2 7h-2zm-241 35l4-1 5-21h1v4 4l-1 3v1l-1 3-2 9h-5zm13-18v-4h1l4 15-4-5-1-5zm133 10l11-4v1l-4 1-1 1zm-20 9l20-9-4 5-14 4zm-107-2l4 1 14-6-7 14v-4l-2-3-8 1zm436 12l-5-17 16 7 2-7h1l-2 9-11-4-1 1 4 5-2 2v6zm28-11l17-6-7 16 33 8-22 6-5 1v-1l2-1 9-2 4-1 2-1-2-2-5-1-15-1-4-4 4-10h-5l-2 1-4-1zm-128-2v-2l23 12h-1l-7-2-5-3zm-233 4l4-1-2 2h-1zm-85 11v-1l26 6-25 7-8 2 1-3 9-2 4-1 9-1v-3zm226 31l2-27 1 1v16l-1 2v8 1zm63-14l3-10 6-1 3 3h-1l-6 1-2 5-3 4zm-354-9l1-1 6 1 4 1 12 5-3 6v-1-6l-8-1zm337 10l4-11 2 1v3l-2 4-7 20-1 4v1l-1 2-1 3-2 5-1 5-2-1zm133-9l6-1 9 4 1 6-3 5 3 2 2-2 2-1h4v1l-10 5-7 2 7-16-14-4zm-420 14l7-2 2 3-4-7v-4l3 1 3 6 4 10-9-3zm469 1l1-6h2l3 4 3 8-9-3-6-4v-1h1l2 1zm-488-3l2-1 2 4 2 11 1 4 2 8 2-1-2 8-2-1-5-22-1-6-4-1v-2zm389 17l-14-11h2l9 3 15 14h1 1l1 3h1l1 1 1 2v1zm-148-5l2-1v3 8 5 3h-2zm123 5l2-5 15 9v1h-4l-6-4 1-2-6 1zm-46 16l9-18v2l-1 10-2-1-2 6-1 1zm-7-13l1-1h2l-7 16-2 4-16 36-7-1 1-6 3-10 3-6 3 1-1 2-2 4-1 2-1 4 1 4 1-3 3-5 1-2 2-3 4-12 1-3 4-7 1-3zm128 5v-2l13 12 12 17h-1l-2-1-10-13-2-2-10-7zm-53 3l1-2 37 32 13 18-10-7-5-9-3-3-2-3-3-2-1-2-23-20-4-1zm-43 0l1-1h2l-33 58-9-4 1-1 5 2 2-2 2-2 5-9 2-3 3-5 2-3 3-10v-1l6-2 1-7zm-87 28l1-20h2v12 6l-1 3h-1zm-15 2v-18h6l-1 18zm49-10l3-8 2 1-2 7zm24-6l1-1 2 2-7 11-2 11-2 2-2 3v3l-1 2h-2-2zm-59 19l2-1h1v1 3l5 3 1 1v1l-9-1zm203 29l-20-28h1l5 1 1 6 10 12 2 5 1 2zm15-23l1-1 11 18h-1l-2-2-7-10-1-3zm-146 27l-6-5 14-22v1l-2 5v2l-6 8-2 3 2 7zm-86-18v-8h4v7l-3 1zm198 5l-2-5 11 13 15 29h-1l-3-2-1-5-15-21-1-3-1-4zm-209 4v-5h1v7l-27 4-23 9v-1l5-3 2-2 28-9 10 1zm-240 15l8-15 1 1-2 10-6 4zm308-10v-2l21 12h-1l-4 1 1-2-10-5-5-2zm-318 34l8-19h2v1l-2 10-6 7zm514-16l1-3 6 14-2-1-2-3v-1l-1-4zm-180-1l1-1 8 6 3-1-1 3 3 2 3 3 2-1 7 11v1zm15 2l1-1 6 4 16 17h-2l-1-1-2-2-4-4-1-2-3 1zm86 7l-3-4 3 1zm10 18l-10-17 5 2 5 12zm77-5l2-2 4 13h-1l-1-1-1-2-1-2v-1l-1-3zm-33 4v-1l8 19 2 10h-1l-3-3-1-4v-3zm16 17l-6-17h2l6 17 1 4 2 7 1 3v1 3 3zm22-6v-2h2l9 44v37h-9v-1h1l1-1 5-1-1-37-1-3v-3l-1-3-2-21zm-364 1l3-2 1 1v1l-5 10-7 6-1 10-7 12-1 1h-1l4-14zm-176 32l7-33 1 1v1l-1 4-4 23-1 4v1h-1zm452-29v-4l6 11 11 43-3 2h-3l-1-1 3-2v-3l-4-18-1-6zm-30 30l-13-31h2l1 2 8 14 1 2 3 8 1 5 6 22 6 1v2h-9zm-63-19l4-5-1-5h1l4 3-8 15-1 1 7 2v2h-9l-2-3zm-176-5v-2h1l3 4 7 12-3 4h-7v-2l1-1 6-3zm198 8l1-1 6 13h-1l-4-8-2-3zm93 19l-4-16h1l3 6 1 3v2zm-68 32l-3-26-7-21h2l4 10 1 3v3l2 8 1 8v1l1 4v9zm107-40v-5h1l2 9h-2zm-337 23l-6-2-4-6-1-6 5-9 1 2-3 13 6 3 5 4v3h-1l-1-1zm349-18v-2h2v1l1 4 1 4v8l-1 8v-3l-1-8zm-108 23l-4-19h2l6 31 6 1v1h-5l-3-1-1-2v-5-3zm-420 19l1-33h2v10l-1 20 3 1 1 2h-1zm381-14l-12-4v-5l9-6v2l-4 9 9 3zm140-7l1-1h1l1 5 7-2v4l-6 1zm-123 12v-3h1l-1 28h-1v-1zm-256 7l3-2h2l-1 5h-8v-2zm287 4h-20v-5l2 1 17 2zm-265 0l1-4h1l2 8 16 4v7l-5 3h-2l5-3-3-7-13-2-1-3zm-89 10v-2h32v2l-2 1h-8-4-2-7-5-3zm332 9l1-9h12l-1 1h-7l-4 8zm76-7l-1-2h18l-1 2zm111 3v-1l-1 10h8l-6 4-8 3zm-590 26l-3-23h2v7l1 6 1 3 1 3v3zm374-21v-2l8 5-1 9-7 9v-1l5-13zm93 6l-1-4h3v1l-1 9-1 8-3 1v-1l2-11zm-323 4l1-5h1l8 25 12 21-2-1-3-2-1-3-6-8-1-4zm255 2l2-6h2l-1 10-4 4-5 17-8 14-4 2h-1l13-22 4-13zm-241-1l1-1 4 14zm268 2l1-2h1l7 13-1 3zm-21 3l2-2 5 1h2v1l-9 6-3 6 2 10-1 2-9 5 5-9v-3l1-5zm-235 1v-1l2 4h8l-1 2-9-1zm309 13l-5-6 1-7h2v1l2 11zm64 7l3-19h1v2l-3 19h-1zm-360-17l7-1 3 4-9 13v-2l3-6 1-3-1-4h-4zm179 18l-9-15 3-4 10 1v1h-7l-3 2 4 8 2 3 1 1 1 6h-1zm21-14l3-2-15 27-14 15-6 4 1-4 2-1 2-1 3-5 2-2 1-1 1-1 2-1zm128 7l4-1 1-8h1v4l-2 8-9 1-7 6-5 4-5 12v-5l1-3 1-3 8-9 1-1h2l1-1 4-2zm-348-7l2-1 4 13zm249 10l-1-5 5-5h6l4 5v5l-7 5-4-1v-2l8-1v-8l-7-1-3 8zm-325-1l-11 3-2-10h1l1 2 4 4 7-1zm440 11l-4-3 2-12h1v4l1 9zm-426-6l16-4 5 13-2-1-1-2-2-4-1-3h-3l-3 1-4 1-5 1zm-55 5l9-5 5 1h3v1l-6 2-13 4-3 1h-2l2-3h1zm33 5l1-4 13-4h3v1l-13 6v4l1 3 10 23 1 2 7 9-1 3 4 1 2-1h2l-6 4-10-14-8-17zm55 4l-5-11 2 1 4 10zm292 10l-3-16 8-4v3l-3 1 1 15zm-231-10l16-7 4 3-3 12h-2v-4l1-1 1-3-1-3h-3zm140 15l-3-20 6-2 16 6 1 1-4 2-15-6-3 2 1 3 1 4 1 10zm56-17l3-5-1 11 4 7-2 5-4-13zm42 20v-15l6-10h1v1l-5 11-1 12zm-366-22h4l1 6h-1l-9-3-7 5-10 1-3 1-6 2-1-2 7-3 6-2 10-3zm470 10l2-7h1l-2 7zm-73-4l7-2-1 5-8-3zm-445 1l1-1h1l3 17 14 33-1 1-10-17-4-15-1-4-4-6zm53 3v-4l3 8h-1l-1-1zm52 0l1-3 10 16-1 4-6 3v-1l3-6zm64 3l2-1 6 5 3 1 1 3v2zm38 13l11-12 7 3v5h-1-1l-4-5-8 7 1 2-5 1zm71 9l4-4 2-16 6-1 10 12h-2l-1-1-9-8-4 6-2 13zm217-17l4-3h2l-4 6-2-2zm-336 1v-2l21 19h-1l-6-4-3-1-9-7-1-3zm-102 3l2-2 9 17 9 15-2 3-7 3v-2l4-7-7-8-7-16zm186 14l6-14 5-2 4 1 6 15 3 1v1l-5-2-4-10-4-2-4 1-6 15-2-2zm-111-5l2-1 12 15h6l-1 2 2 2 6 5h1 1v3l21 12 3 1 13 6 3 1 13 4-2 2-15-4-5-2-35-20zm232 3l5-4-3 9 3 1 9 9-5 5-6-5-6-6v-1l5 2zm-160 4l-11-7h1 2l10 5 3 1 14 6v1zm232 6l7-3 9-10h1l-4 12-5 2-8 2h-2zm-335 3l19-14 6 5-2-1h-5l-17 11zm216-5l9-4v2l-6 6-11 3-3 1h-2v-1zm161-2l11-2 2 3v1h-3l-2-1h-4l-8 3h-1zm-92 3l1-1 6 2-1 2 11 10 4-4h5l3-2-9 11-17-14zm-188 5l-3-4 8 3 19 7 23 4-1 58-1-1v-7-16-9-15l-2-8-5-1-12-2-3-1h-7l-3-3-5-1h-1l-2-2-4 1zm41 0v-2h6l3 1h4 8 1l2 1zm107 17l13-12 3 2 3 4-2 1-6-2-4 6-6 2zm113 5l3-6-2-11 6 11-5 8zm-188-13l18-3 2 1-17 4-4-1zm46 13l23-12-18 13-11 4 2-3 3-1zm175-6l6-5-4 7zm-412-3l5 2 10 14-2-1-5-2-4-9-6 2-3 1-10 6h-2v-1zm-31 12l-8 3-7-12 3 1 6 7 6-3 1 2zm321-8v-1l13 13v1l-9-5zm-266 7l4-3v7l7 4 1 4v1l-3-2-10-11zm302 15l-5-6 6-7 8 5-2 1-7-2 1 8zm21-10l1-1 5 1 9 10h3l6-1h1l-6 7zm49 16l1-7 2 1 7-10h1zm-418 6l-11-14 8-7h2l1 2-6 5 3 2-1 3 2 2 1 2 2 1 6 7 1 3 2 3v1zm240-10l26-10v1l-3 2-1 1-14 6-5 1-3 1h-1zm-120-7v-2l9 4h-2zm9 3v-1h2l8 3 6 3h-5l-4-1-2-2-4 1zm204 5l4-2 29 29-21 18v-1l1-1 3-4 1-1 2-1 1-1 6-5 2-2v-4l-12-11-2-3-11-9-12 10-2 2-4 1h-1l3-4zm-162 26l-2-6-33-8-20-10h3l12 5 4 1 5 3 4 1 6-2v4l17 3 2 1h1l1 2 1 1-1 7zm142-22l1-1h3l-2 3-18 11v-1l2-2 1-1h1l3-2zm-117 24v-24h2v23zm-273-4l-8-12 17-7v3l-11 5 8 11zm150-17v-1l8 5 6-3h1 1l-3 7h-3zm339 2l2-1-9 13-36 33h-1l2-4 1-1 2-1 1-1 2-1 6-7 1-2 4-1zm-338 13l1-2 5 2-6 11v-3zm11 14l7-12 1 1-6 12zm215-10l2-1v1zm-149 1v-1l18 3v2h-3-12l1-2zm85 24l32-9 32-16v2h-1l-1 2-19 11-9 1-5 6-29 4zm31-21l14-4-18 9-26 7v-1h1l4-2 23-7zm91 17l17-16v2l-2 5-6 3-3 3-2 2-2 1zm-162-8v-6l2 1v4zm-296 0l1-3 4 4h7v5zm326 4l8-1h2l-9 2h-1zm-135 4v-2l15 7v2h-2l-13-6zm-142 1l1-2 7 6 1 6h-5zm380 6l6-3h2l-5 5-5 2 1-2zm-242 3v-2h2l13 6 12 5v2l-18-5zm-11 13l-19-12h1 5l37 20 3 1 3 2v1h-3zm50-9v-1h4l12 3 4 1 1 1v1h-1zm-195 18l-10-7-1-6h4l2 7 5 3zm406-5l3-2-1-3 9-2 1 1-12 8v-1zm-58 6l8-5 10-1h1l-31 13-8 2-19 4v-1l1-1 7-1 3-1 3-2h4l10-3 4-1 4-2zm-9 14l30-11v2l-7 6-4-2-7 5-12 2zm41-7l6-2v2l-7 4-47 15v-1l8-3 3-1h2l3-2 30-10zm-171 5v-1h3 3l8 1-3 2h-6zm-151 3v-3h5v4zm181 16l13 1 2-12h1v14l-16-1zm42-6l15-1v1l-1 1h-11-3zm40 2l1-1h1 1 1 2l1 1-27 5-1-1v-1l4-1h2l8-1h1 2zm-161 14l1-11 6 6-1 6zm-77-7l8-2-1 4-5 1zm-1 10l2-2 10 6v3l-11-5zm85 9v-6l7 3-1 4zm73 1v-5h3l3 5zm-13 26l-4-17 7 4 2 11zm-99 6l-20 2 19-7z"/>
			<path id="Path 19" fill-rule="evenodd" class="s6" d="m153 107l2-2v2zm234 23l-2-23h2l9 2 7 1-3 1h-9l-2 1-1 18zm-17-20l8-1-2 106h-1v-30l1-25v-47l-1-3zm26 50v-4h1zm85 0l-2-2h1l2 2zm-89 36l1-6h1l-1 6zm4 52v-2l19 2 17 6-19-4-3-1zm42 9l-6-3 10 4h-3zm-173 127l1-10v3l1 3v4l-1 16zm9 2l2-1-1 3h-1zm367 7v-1h9v1zm-374 13l-1-5h1zm239 3v-3h1zm30 4l4-1 4 3-4 5v-7zm-353 9v-5l1 5zm333 38h1v1h-1zm127 9v-2l1 1zm-155 34l5-1v1l-5 2zm135-2l1 10-1-7zm-151 17l3-6h5zm-197-2l-2 1-1-4 4 3zm331 12v-1h5v1zm-210 19l20-3-21 6zm-70 25v-1l12 4-1 1h-1l-3-1-5-1zm80 24l1-2h10zm-8 60l4-1v1z"/>
			<path id="Path 20" class="s13" d="m164 627h-3l3-4z"/>
			<path id="Path 21" fill-rule="evenodd" class="s9" d="m410 67l14-4v4l-5 3zm-23 40l2-7 7 2v7zm-9 2v-6l5-2 2 6 2 23-1 52v18 10 18 10 8 4 2l2 4h1 7l15 2 5 1 1 1-1 9-13-3-39 1-26 8-30 19-5-7 12-10 11-7 23-9 27-4v-7-35zm19 47l1-12 4-6 6 4-1 11-2 27-1 7v8 2l-2 9-1 20-1 5v7l9 1 8 2 2-4 9 1-1 6 7 1 16-36 9 3-15 33-1 4 6 2 9 4 33-58 6-10 8-11 6 6-2 5-1 1-24 42-4 7-14 22 6 5 3 2 12 11-6 5-6-4-11-8-21-12h-1l-10-4-17-6-19-2h-6v-1-7l1-10 1-18 1-14 1-6v-5l2-17v-8zm-265 13l-6-8 8 1v6zm40-6l8-2v4l-5 4zm296 5l3-4 7 5-6 16-9 18-3 5-8-3 7-16zm-27-1l1-2 9 2-11 36-2 7-3 8-1 4-3 6-8-3 5-17 2-8 8-25zm183 7l3-2 6 4-6 10h-5zm-489 3l7-4 4 1 1 6h-11zm395 16l4-6 18 13 8 7 8 8 1 1 1 1 6 7 7 8 20 28 1 1 9 16 11 26 6 17-8 1-8-19-6-14-15-29-11-13-13-18-37-32-1-1zm-109 77l1-9h3l3 1 6 2 5 2 20 11 26 23 21 31 2 5 7 21 3 26v4 5h20 21 8l74 1h9 4 9l-1 9h-46-7-18-62-12l-1 9-2 7-2 6-8-3 2-12 1-3 1-28-2-14-6-20-6-13-13-19-1-1v-1l-22-22zm-7 17l-8-2-1-7 8 1zm23 7l1-4 10 5-2 7-6-2zm35 12l-1-2 4 2zm-3 1h1v1h-1zm-202 25l13-20 8 3-14 25-4 14-4 14h-9l1-8 3-11zm29-10l5-5 1 8-3 1zm274 3l8-1 4 10v1l4 16 1 6 1 10-7 1zm-287 20l2-4 8 1-1 4-4 1-2 14-6-3zm244 7l-1-4h8l6 25h9 5l3-1h6l12-2h3v10h-2l-13 2h-8l-15 2h-1l-6-1zm104 16v-8h8l1 8h-8zm-139 18l1-8h3v8zm-236 0v-2h9l1 16v1l1 5 4 17 5 13 6 12 1 1 2 3 10 14 6 7 12 10 12 8 11 7-1 9-8-3-15-8-21-19-12-14-12-21-8-25-2-8-1-8h-11l-29-1h-32-24v-10l87 1h8zm-147 14l-3-1 3-9h5v10zm67 23l7-1h1v3l3 13 2 10 11-3h3l3 7-13 4-1 4h-8-4v-9l-2-11zm351 4l4-3 8 1 8 14-3 15-8 4 3 16-5 8-13 2-5-1-5 9-3 4h-5l-2 4-3-1 3-9 7-10 2-5-4-7 1-11 9-5v8 1l-1 4 2 6 5 5h5l4-5-5-10 6-4v-6l7-5v-5l-4-5h-6l-2-8zm50 6l3-1 1-8h8l-1 5-1 7 5 6 2 13v3l-6 24-4 9-9 10-7 3h-7l-2 4-6 10-7 9 13 10 19 16 6-7 9-14 5-8h6l2 3v1l-25 36-21-14-4-4-9-7-8-5-6 7 5 6 23 23 2 2 3 4-1 5-17 16-10 8-3 1-5-6 5-5 21-18-29-29-4 2-5-5 1-5 6-5h3l5-8-17-14 5-6 17 14 9-11 7-9-3-7-4-13 1-12 5-11h9v4l13 4 8 3 1-5v-16l-1-4h-7l-8 6-6-5 4-5zm-17 57l7 5-1-3 7-4 4-9-13-5-3-1-3 1zm-61-56l2-4h9l-4 13-13 22-3 4-15 15-5-8 14-15zm-276 4l8-2 6 3 3 8v1l2 5 5 11 5 9 4 6 8 12 25 26 35 20-3 7h-2l-9-4-4-2-26-18-4-4-4-3-1-1-13-14-6-5-19 14-12 8-5-3v-5l6-4 19-13 6-3 1-4-10-16-3-8-5-13-16 4-4 1-1-8zm389 15l7-6 9-1 2-8h8v3l-2 12 4 3 3 11v2l-3 13-11 11 5 11v9 5l-4 1-6 5-13 3-1-8 10-3 3-4 1-1-1-10-2-3-11 2-4-7 5-2-2-3 6-5h1l7 4 6-6 4-6 2-8-6-10-7-2-6 5zm42 9l2-11h1l3 1v5zm-497-4l13-4 1 8-10 3zm-21 6l15-5h1 2l1 8-7 3h-4l-1 4 8 20 15 30 7 12 8-3 6 5-8 7 11 14-5 5-15-17-19-31-14-33-3-17zm192 16l-4-1 1-5zm-137-1l7-3 8 17-6 4-9-17zm248 17l6-2 4 8-13 7-15 5-18 3-6 1h-7-3l-1 6v30 24 5 6l-1 75h18l-3 6h-16l-8-6v-14-74l1-58-23-4 1-9 16 3h24 5l18-4zm49 9l5-2 6 6-5 6-3-2-13 12-16 10-1 1-5 3-26 10-30 7-5-1v-5l21-6 8-2 19-7 11-4 18-13 8-6zm-288 13l7-3 5 6-17 12-4-7zm129 29v-8l15 4 14 4v7l-15-2-8-2zm-43 1l9-2 11 6 20 10 33 8 2 6-2 3-18-3-3-1-12-4-18-7-16-8-10 18-7 12-4 6 10 5v1l-2 7h-2l-15-10 2-12 6-11 3-7h3l3-7zm201 19l18-11 5 5-3 4-15 10-2 1-32 16-32 9-15 3h-5-4v-8h4l11-2 9-2h1l26-7 18-9zm-372 47l10-14 6-3 8 1 4 10-3 7-8 6-3-9zm177-3l2-7h2l20 7 20 5 19 4 1 7-5 1-26-5-10-3-11-4zm225-3l5-2 7 4-10 8-29 15-30 11h-2l-1-7 31-13 10-5zm-256 18l5-6 27 12-3 7zm-131 5l10-4 7 4-10 12h-3l-4-2zm377 6l9-4-3 8-8 3-5-3zm-199 8v-8l22 5 5 2-3 7zm122-2l19-4 2 7-11 4-12 2h-4v-7zm-269 27l-1-7 3-3 5 7 7 3-4 3-6-1zm134 23l-14-3 2-7h5l6 1zm146 10h-10v-9l9-1zm-184 2l-1-11 13 1zm40 12l-14-10-4-11 14 2 11 7-7 7zm-23 1l2-10 6 9zm84 10l5-14h16l-3 14-8-1zm-22-7l19-5-10 20-9-11zm107 22l8-8 3 1v5l-5 5h-5z"/>
			<path id="Path 22" fill-rule="evenodd" class="s10" d="m384 16l4-1 2 9-1 2-3-3-1 4-2 1-1 5h-1-1zm17 23l10-4-5 16v2l-4-1v-5h1l2-2-1-4-4 1zm-33 12l-3-8h1l2 1 3 3v1 1l-2 2-1 1zm41 3l3-1 12 3v1zm-35 21l4 1v1l-9 3h-1l4-4zm-223 39l2-7h2l1 7h-1-3zm461 10l3-15h3l7 27v1l-2-1-1-2-4-19-3 3-1 3-1 3zm-294-6l20-4-1 2-9 2-5 1h-3-1zm292 12l2-6v4l-1 2zm-212 9l4-1-4 6-1 12h-1-1v-1-12zm-290 13l8-1-2 3 1 2-1 1-6-1zm462 1l9-2 2 1-1 4 4 2v1l-14-3zm-438 16l2-1v1l1 5 4-2 3-1v2l-7 4-7 2zm38 45l14-18 30-26v1l2 3-7 2-13 14-1 2-3 1-10 8-2 6-4 1-1 5-4 1zm328-33l6-9h3l-2 4-8 11v-4zm117 10l2 3 2-5 1 1-3 13-4-13zm-226 10l2 2 1-7h1l-1 14h-6v-10h2zm38 0l3-1-2 8h-2zm11 9l2-7 2 1-2 7zm22-2l3-5h3v2 5l-4 3-2-2zm108 7l-8-8 5 1zm-134 7l1-4h3l-1 5zm-291 33l9-18 13-16v2l2 3-2 1-2 2-11 14-1 3-7 10zm465-32v-1h1l10 14-1 1-9-2zm-32 1v-1l7 4 1 5h-1zm-190 14v-10h5l-1 10zm94-1l4-7v3 4l-4 1zm-67 1h3l2-7h2l-1 6-2 4-8-2v-1zm36 13l-6-2 1-4h2l4 5zm164 26l-9-16h1l7 8 1 4v2zm-174-11v-1l13 4 8 7-1 1zm-131 28l30-19 26-8 39-1 13 3 5 1 37 18 22 22-1 1h-1l-1-1-3-1 1-3-4-2-2 3v4l6 8h-1l-8-9-4 1-15 5-3-3 2-11 2-7-10-5-5-3-5 6-6 6h-4l-3-2-1-10-1-8-8-1-9-1-7 16h-6l-6-11-1-5-14 1-4 2v5l-1 12-3 2h-5l-8-9-2-3-4 2-11 6 4 16-3 5-19-6-5 7-5 5h-1v-2l2-3v-4l-2-1-2-1zm179-17l-12-11h1l9 3 11 12 5 1 7 11 1 3 4 8zm-354-2l2-5h1v3l-1 2zm341 4l-11-9h1l11 8zm-170 4l2-5 7-1h2l-12 10-9 7v-2l7-8zm181 16l6 1v4l3 3 1 1 11 17v5 1l-21-31zm11 2l-1-2h2l15 21h-1l-10-11 1-3-3 2-3-2v-1zm-377 13l4-13 1 1-1 2v1 3l-2 6-1 1zm164-11l3-1-6 10-13 20v-2-2l1-1 1-3 1-1 3-9 5-2v-5l2-1zm8 10l2-2-1 3zm335 41v-7h2l1 2 2 11v8l-1 1-1-4-2-2zm-77 17l3-1h8 3v2h-6l-3 1h-5zm-294 4v-2h1v11 2h-2l-2-2v-5l1-2zm323 5l10-2v2l-5 3-7-1v-2zm-386 7l6-1-1 2 3 1h8 8 1 15 1 14v2l-87-1 1-2 7-1h16zm367 5l1-2h6l1 2zm-72 20l-9-6v-4l2-3 11-2h3v1l-7 4-5 1v3l1 1 3 2 1 1zm-378-12h5 16l-1 2-16 1-1 7h-2zm44 1v-1h7 24v2l-6 1h-1l-9-1-6 2-3-2zm90 2l2-2h11l1 8h-1l-1-4-4-1-5-1h-2zm339 11v-3l4-1 2 2 2 2-8 1zm8 6v-6l2 4-1 2zm-358 15l2-2 5 3 1 11-3-8-6-3zm331 5l1-1h1 1v1l-4 5-9 12h-1l4-12zm-363 3l8-2v2l-5 2h-3zm394 12l-2-13 2 1 2 1-1 4v6zm22 5l6-5 7 2 6 10-2 8h-2l1-11-2-2-9-3-3 2-2 5-2 2v6l-3-2zm-472-1l4-1h2l1 1-15 5v-1zm151 7l2-1 6 7-2 1zm195 3l3-4h1v2l-3 2zm153 0l1-1h1v12l5-10h1l-17 43v-9l-5-11 11-11zm-492 25l-8-20 1-4h4l1 2-3 1 2 6 1 4 1 3 2 4zm465-14l7 4 4-5 2 2-6 6-7-4zm-303 3v-2l3 1 2 3 8 5v1h-1zm132 9l9-9 6-1v2l-15 10-6 2 3-3zm139-1l4-9h2v3l-5 6zm-73 1l5-9 5 1-1 2-8 7zm-161 170l-34-6-36-12-34-17-31-21-36-34-20-25-20-33-12-30h1l7 10-1 5 6 12 1 1 6 7h2l1-2 1-1 19 31 15 17 20 23 20 17 36 22 29 13 18 6 24 6 22 3 1-6 1-1 3 1v6l-7 2-15-2-3 3 2 2h11l1 1h4 1 1l6 1v2h-6zm-129-147l12-8 1 1-7 7 1 5 4 2-1 3-1 1zm284-1l5-5 6 4 17 14-5 8h-3zm-308 4l3-2v2l-9 8-9 5-1-2 14-9zm362 19l-13-10 7-9-2 6-1 3 4 3 2 2 4 4zm-64-17l2-1 5 5v1l-6-1zm116 7l13-3 2 2-7 11h-1l3-8-6 1-4-1v-1zm-149 8l16-10 1 1-7 8-11 3v-1zm121 11l8-16 2 2-9 14zm-38-6l2-1 9 7v3zm-297 5v-1h5l10 12v1zm291 1l4-2-1 4 2 1 12 12h3l2 9-23-23zm-176 0h2l1 2v1l1 2-3 7-6-1v-1l2-1h3v-8zm-81 3l1-1h3l-7 10h-1v-3l3-5zm-160 6l8-2 11 18-3 3-5-2-8-14h-3zm160 19l10-18 16 8h-4l-11-4-7 11 1 4-2-2-2 2zm-34-15v-2l17 13-1 2-12-5-1-3-1-3zm244 16l15-10h1l-14 11h-2zm-402 14l-5-3-3-11 2-3 5 1 2 13zm475-8l1-5-3-4h3l2 10-3 1zm-463 9l10-6 1-10h6v14l-10 7h-7zm179 7l-10-5 4-6 2 1-1 5 5 3zm-168 3l12-8h9l6 4-1 2-8-1-6 3-10 14-1 2h-4l-1-9zm122 0l1-1 9 3 3 6h-1zm61 2h11l1 3 6 3 2 1v1 1l-20-7zm115 2l15-3v1l-7 3h-6-1zm124 2l3-1-1 2 1 2h-3v1 1l-3 2-12 5h-1l10-8zm-403 15l8-6 3-7h5v9l-8 10-10 4-9-2v-3zm406-4l2-4h4 2l-7 5zm-234 1v-2l11 4-1 1zm-152 0l3-1 9 6-3 4h3l12 4 3 11v3h-4l-3 5-9 10-3 3 1 7-14-13 8 1 4-6 11-12-3-9-9-2-10 13-5 5 1 7-12-9 2-2h3l10-12 7-7zm174 7l-1-2 26 5-2 1-19-1zm-26 7l9 2 1-1 2 2 6 2 3 1 3 1 3 1 3 1v1l-22-5-12-5zm-116 14v-4l11 7-2 12-15 16 2 7-11-7 2-4 4-3 10-12 3-8zm237-3l3-1h6v1l-6 2h-4v-1zm-223 23l6-2 2 3-1 5-2 2-4 3-2 8 2 5 6 5h8v3l-13 1-10-10 1-14zm21 3l3-2 4 7-2 9-5 1-4-3v-3l4-2zm261 0l10 5 1 19 13 10 3 6-2 12-8 6-13 2-9-6v-15l4-13-7-6-2-12zm-212 10l-5-6 17 2 1-4 6 1 1 5v6h-5l-2 7 14 3 15 5v5l-6 2-11-7-14-2 4 11 14 10 15 14v4l-5 4-11-2-14-20-6-9-2 10-7 22-5 1-3-7 6-17 3-10-8 4-11 5-1-5 9-6 12-10-13-1-10-1-4-6 26 2 6 1 3-5v-5zm175 64l-17 2-6-10 3-5 10 3 7-3 5-10-1-7-4-3-19 3-2-7 3-3 3-18 21-2 1 2v3l-7 5-9 1v9h10l6 2 7 9 1 10-4 11zm-90-48l7-2 1-9h6l1 7 12 3-3 13h4 11l4 2 1 5-2 2-16-2h-16l-5 14-15 21-4 1-4-5 10-9 10-20-19 5h-8l-6-4 1-2 25-5 5-2 4 1 2-6v-7zm15 32l8 1 14 11 4 8-1 7-5 2z"/>
			<path id="Path 23" fill-rule="evenodd" class="s11" d="m450 209l2-4 8 3v3l-1 1zm-30 22l2-6h1l8 3-3 10-9-1zm-4 38l1-9 5 1-1 9zm-39 13l6 11h6l7-16 9 1 1 7 8 2 1 10 3 2h4l6-6 9 1 3 6 6 2-2 11 3 3 15-5 6 6 3 12-5 10 2 3h9l6-1h4l5 17-5 3-9 6v5l12 4 3 2-1 8v10l-1 1-11 2-2 3v4l9 6 5 7-5 13h-8l-10-1-3 4 9 15-8 13-16-6-6 2 3 20-16 7-10-12-6 1-2 16-4 4-11 2-3-1-6-15-4-1-5 2-6 14-9-1-2-5h-6l-1-8v-5l-7-3-11 12-11-6-3-6v-2l3-12-4-3-16 7h-2l-9-10-1-1v-3l1-2 9-13-3-4-7 1h-11l-2-4v-1l-3-11 8-6 5-3v-7l-16-4-2-8 1-3v-7l17-4 1-7-3-2-5-4 2-14 4-1 1-4h10l3-4-7-12 3-1-1-8 5-7 19 6 3-5-4-16 11-6 1 3 5-2 8 9h5l3-2 1-12 5-3zm-6 46l-10 3-3 2h-1l-6 7-7 2-4 8-5 2-1 3-8 20-1 3v17l9 25 3 2 1-2v5l4 1 2 5 19 12 4 1 5 2 6 1h19l1-1 23-9 2-2h1l7-9 2-2 7-8 1-4 4-12 2-14-1-10-1-4-6-15-1-3-7-7-2-4-1-1-4 1 3 12 2-1 4 10 3 2 1 8 1 4 1 6-1 14v6l-5 7v1l-1 2-1 1-3 7-12 9-2 2-9 5-25 2-13-3h-4l-11-9-5-5-8-7 1-2-4-6-4-13 1-19 1-3v-1l3-12 5-4v-3l2 1 4-7 4-1 4-3 7-4 6-4h7l8-1 14 1 10-2v-3l-14-4-20 1zm-12 21l-6 9-6 1-4 10 2 1-6 8-1 15 5 17 11 14 12 5-1 3h3l8 3 3 1h12l3-4 6 1 5-3 3-1 10-5 4-4 7-16v-3l3 1 1-10v-8l-2-9-4-10-5-8h-14v4l4 2 1 3 3 6 4 7-1 20-7 13-9 6-1 2h-6l-5 4-2-2h-12l-1 2-3-2-4 1 1-3-2-2-4-3-3 1-1-4-2-2-2-3v-1l-3-2-1-2-2-5-1-5-4-16v-3l1 2 3-3-3-2h4l6-3 3-7h4l3-2h2l4-5 4 1h2l10-2 3 2h2l6 1 3-2-1-5-2-4-8-2-3-1h-1l-5-1-16 4zm6 15l-5 10v2l2 2-4 3-2 14 2 5 3 3 6 8 18 5 7-1 4-4 3 1h1l3-2 10-14v-14l-1-7-7-10-13-7h-14zm264-15l8-1 2 12h-8zm-48 19l7-1 1 8-1 3-10 2v-10zm-325 5l1-5h9v6l-1 10h-9zm-142 27v-10h46v10zm387 30l3-9 8 3-2 6zm-298 15l5-2h1l1 8-1 1h-3zm314 5l8-2 3 2 4 1v6l-6 4-9-1h-1v-8zm-341 2l4-1v9l-9 2-1-8zm-22 7l3-1 4 7-6 2zm347 41l2-4h5l10 7 3 4-5 6-6-4zm-294 15l2-3h7l5 3 9 11 5 6 10 11-6 5-12-11-10-14-5-2zm-92 99l14-2 3 9-11 5-5-3-2-7zm33 28l10-13 9 2 3 9-11 12h-7zm184 9l3-7h6l14 4-1 6zm80-5l8-1h4v7l-7 2-15 1v-8h3l4-1zm-249 14l9-10 13 8-10 12-7-3z"/>
			<path id="Path 24" fill-rule="evenodd" class="s0" d="m402 47l-2 1 1-3zm-34 22v-2 6zm229 66h1v1h-1zm-209 46v-6 9zm-187 26l-1-2 2 1zm42 32l-3-6 5 3zm2-4h1v1h-1zm106 5l4-4 3 2 2-2-1 3zm-34 3l3-2-1 5zm-128 7l-2 1v-4h1zm6 4l-3-4h1l4 3zm125 6v-1h1l1 3zm-163 3l2-2-1 2zm52 2l-3 2 1-3zm18 17l-1 3-1-4zm-93 2l2 2-2 1zm99 2v2h-3zm-24 16v-1h2zm260 9v-4 1zm8-1h1v1h-1zm2 0h1v1h-1zm27 9l3 3-3 1zm-325 18l1-6v5zm-41-4v-1h1l-1 10zm258 2l10-2v1l-4 3-6-1zm-260 14v-5h1zm381 0l2 6-2 2-2-6zm70 10h1v1h-1zm-466 9l1-8v8zm52 0l1-8v5 3zm256 7l-4-10 2 1 2 4v2zm-91-5l3-1 2 1-6 8-1-1zm9 2l-3-2h4v1zm97 4l-1-4h1v1zm-101 0v-3l1 2zm-20 2v-3h1zm-201 4h-3l1-2zm8 0l2-2-1 4zm192 1l1-2v2zm-145 0v-1h2l1 2zm234 8v-9h1v9zm20 1v-8h1v8zm-83 5l-1-5h1zm10 6l-1-2 2 2zm69 1v-3l3 1v1zm-185-1h-4 3zm114 7l-2-3 2 1zm6 5l-3 1-1-4 4 2zm9 7l-4 1 1-3zm7 0v-1l3 1zm-11 12l-1-2 8 3zm10 2h6-5zm186 2h1v1h-1zm-120 72l3 1-4 1zm44 52h1v1h-1zm45 47h1v1h-1zm-225 24h1v1h-1zm39 9h1v1h-1zm1 1h1v1h-1zm4 16h1v1h-1z"/>
			<path id="Path 25" fill-rule="evenodd" class="s1" d="m383 90h1v1h-1zm-248 50h1v1h-1zm148 15l19-6 3-4 7 1 21-6-1 2-11 3-10 3-24 7zm33 0l4-1v1l-4 1zm78 0h1v1h-1zm-183 43l34-26 12-3 3 2v7l-2-1-2-5h-4l-17 12-9 6-10 8h-1zm416-28h1v1h-1zm-69 2h1v1h-1zm-266 14h1v1h-1zm1 6v-5l4 11h-2zm52-3l1-2 5 2zm-106 1l4-2v3l-30 24v-3l8-8 11-9zm217-1h1v1h-1zm-147 11l19-8 13-1-1 2-28 7zm238-8h1v1h-1zm-1 1h1v1h-1zm4 3h1v1h-1zm-62 1h1v1h-1zm42 1h1v1h-1zm-2 3l3 3-2 1zm-325 1h1v1h-1zm13 24v-2l2 3 3-2v3h-3zm94 4v-3l4 9h-2zm-38 1l3-2 3 1-6 2zm-103 15v-5l3 1-1-2 10-9 10 2h-3l-6-1-11 13zm45-7l-7-7h1l6 6zm95 16l-5-7v-7l4 6 2 7zm16-10l7-2-1 2zm29 3l6-3h2l-3 5h-6zm-186 19l8-12h1l-9 15zm153-9l9-3 2 1-6 4-5-1zm117-1h1v1h-1zm-149 9l2-4h9v3h3l-1 4h-2l-3-6-7 3zm12 6l1-3 2 2zm-93 6v-3h3zm3-4h1v1h-1zm63 2l4-2v1l-1 1zm-1 0h1v1h-1zm-1 16l15-12h1l-1 4h-4l-5 8h-3l1 2-4-1zm-148 67l9-47 11-24 1 2-17 56-1 3v3l-1 6zm122-65l-6-1v-3h2 2l2 3zm18 5v-3l2 5-3 7-1-2zm-68-1h1v1h-1zm-1 1h1v1h-1zm51 10l2-2v1zm-59 7h1v1h-1zm82 7h1v1h-1zm-2 4h1v1h-1zm91 6l1-2h2zm-14 9l12-9h1l-6 7zm32-7l8-1v1zm-13 4l6-4h7l-7 3zm-139 24l8-25v3l-6 21zm111-11l9-10-4 8zm24-5l5-3h2l-7 5zm79 7l-3-3h1l2 2zm-200-1l2-1-1 4h-2zm140 1l10-2 3 2zm15 0l6 1-1 1zm-59 18l3-12 5-4-2 5zm29-12l3-2-2 2zm-20 3l3-4h1l-4 10-3 1zm-55 3h1v1h-1zm-166 13l-2-1 3-10h1v10zm108 3l-3 2-7-2 4-14v5 6l1 2h5zm5-9v-5h1zm111 2l3-3 2 14v5l-1 1h-1l-4-16zm70-1v-2l4 7-1 20-7 13-9 6-1 2h-6l-5 4-2-2 1-2 4-1 13-6 9-15 2-4v-12zm15 1v-3l3 12h-1zm-257 6l-2-3 2-5h1v4zm184 0l2-5 2 2zm7 51l-10-5-14-17-5-20 2-13 1 1-1 15 5 17 11 14 12 5zm74-48l-2-6h1zm106 1h8l2-3h8l1 1v1zm-211 35l-8-15-2-22h1v12zm112-27l1-7 1 1v5zm209-2h1v1h-1zm-219 10l2-3v6l-5 7zm5 11l4-12 1 1-4 11zm-49 3l4-4 3 1v1l-5 2zm-28 0v-1l4 3v1zm21 1l7-1-5 1zm-51 4l3 2 1-2v5l4 1 2 5h-1zm57 16l3-4 6 1 5-3-2 3zm-19 10l6 1v1l-6-1zm243 1h1v1h-1zm-3 1h1v1h-1zm-138 18h1v1h-1zm-288 7h1v1h-1zm387 15l4-9-13-5h5l11 4-6 10zm-433 23h1v1h-1zm152 2h1v1h-1zm-1 1h1v1h-1zm170 21h1v1h-1zm-179 13h1v1h-1zm221 5h1v1h-1zm-142 17h1v1h-1zm181 16h1v1h-1zm-3 2h1v1h-1zm-4 5h1v1h-1zm28 4h1v1h-1zm-211 19h1v1h-1zm92 39h1v1h-1zm-2 1h1v1h-1zm3 0h1v1h-1zm-30 5h1v1h-1z"/>
			<path id="Path 26" class="s3" d="m333 140l10-2 2 4v3h-1l-2-4-4 1h-6zm-13 13l16-3-2 3-14 2v-1zm24 37l1-1h6l6 3v6l-2-1h-2l-1-6-12 2 1-2zm-23 17l5-2v2l-5 1zm-113 8l5-3v3l-2 3 5 6v2l-9-8zm361 1h1v1h-1zm-287 8l13-6 4 10h-2l-3-6-9 2zm48 31l20-7h4l-1 2-18 5-3 1zm-105-5v-1l5 3-3 6-1-3zm21 44v-1l2 2-3 1zm5 8l-3-7 7 4-6 9h-1v-1l2-3zm108 29l23-7 16 1 10 4v1l-14-4-20 1-3 1-10 3zm-3 2l3-2-1 2h-1zm58 1v-3l14 11-4 1 3 12-5-5v-11zm-233 3l1-1h1l-4 16-2 13h-1v-5l1-7v-5l2-3zm6 16l5-17h1l-5 23h-2zm195-14h7l-2 2-5-1zm-30 7l4-3v1zm79 1l-2-4 7 8h-1l-2-2-1-1zm-296 5l2-8h1v5l-1 3-1 5-2 15h-2l1-6zm209 2l4-7 4-1zm-2 2v-3l2 1v1zm-17 19l3-13 6-7-8 20zm-91-7l3-12h2l-3 12h-1zm-10-5l2-1-1 11h-1v-5zm211 8l-2-7 3 2 1 8zm11 5v-3l2 14-1-1zm-9 2v-4l1 4zm-83 9v-4l4-2-2 14-1-1zm78 15l1-10h1v7l-2 4zm8 14l1-4h1zm-7 8l7-8-5 10-11 9 7-9 1-1zm-53-3v-1h5 5l-1 2h-6zm43 14h1v1h-1zm144 16h1v1h-1zm-11 23l1-4h5l7 4h-5l-3-1-3 1zm11 21h-6l-2-5h1z"/>
			<path id="Path 27" class="s4" d="m338 142l4-1 2 4-5 4zm-112 48l9-6 4 6-7 5zm-25 22l14-14h1l5 6-8 8-5 3zm150 28l8-1 1 6-6 3h-4v-7-1zm-61 26l7-3 3 6-13 11-15 12-7-3-18-19 7-5 16 16 7-5 1-1zm-95 41l17-29 6 4-4 8-6 10-6 9zm-69 51l1-6h8l-2 14h-8zm49 19v-4h1l7 1v6l-4 1h-3zm49 2v-6h1l8 1-3 7h-5zm255 299l5 1v9l-7-4zm8 24l6 2 4 11-5 4-9-1z"/>
			<path id="Path 28" class="s12" d="m369 338l7-3h8l14 1 6 1-2 4-13-2h-7l-11 1zm-17 8l4-2h1v3l-11 10-2-2v-1zm69 7l1-3 5 5 2-1 4 10 2 7-4-1-2-4zm-69 42l3-1 1 1 2 5 1 1 1 2-2 5-2-1v-1zm51 15l6-4 4-9 3 1-9 15-13 6v-4l5-2 1-1zm29-7l2-4 2 2-3 10v1l-1 2-1 1h-4z"/>
			<path id="Path 29" fill-rule="evenodd" class="s5" d="m339 149l5-4h1l-2 7-9 1 2-3zm-69 15l2-6 11-3h4l-14 6v9l17 40-25 14-27 23-20-19h3l15 14 7-3 2-3h1l4-3 2-1 4-2 1-5 3 1 6-7h6l14-11-5-13-1-3-8-21-1-3zm27-3l17-6h2v1l-4 2-5 1-8 4zm-4 31l-9-20h1l2 1 2 7 3 2v4l1 1zm-50-4l15-11 2 1-3 5-4 1-7 5-1 2h-2zm265-1h1v1h-1zm-196 13l-14 6-3-8h2l2 4 10-2zm-2 30l-7-17 9-3v2l-5 3 3 12zm-6 11l-7-13h2zm11 3l-3-8h2l3 7 2 3h4l2-1h6l-11 5zm-61 21l-10-13 18-14 1 2-15 16 16 12-1 3 7 5-1 2 4-1 1-1h3l-7 5zm85-24l11-1v1l-19 4 1-2 1-1zm-163 14l8-12 4 3v1h-1l-2-1-8 9zm51 3l-5 4-21-18h2l13 8 4 6 6-3zm-58-12l2-1-12 19-1-1 1-2 4-10zm26 8l2-1 20 15-5 10-17 29-12 29h-1v-5l1-3 1-2 1-3 1-3 1-3 1-1 6-15 1-1 1-1 1-1 7-18 4-2 3-3 1-1 2-3-5-6-2-1zm83 20l4-6 7-2h1l-12 9zm-138 58l12-37 16-28v3l-3 10-7 7-1 7-5 6-10 31-1 1zm78-50l7-7 17 15h-2l-7-4-6-4-2-1-5 2 1 2-5 5h-2zm-16 27l6-9 1 1v1l-16 34h-1zm36 44l13-33 11-14 1 2-5 10-5 3-1 4-12 27zm-6-15l1-10 4-3h2l-7 16zm176-8v-1l6 2v3h-6v-1zm-37 10l11-1v1l-16 4h-2zm-3 18l4-5 4 1zm46-2l7-3 8 13-2-1-5-8h-8zm-64 14l6-3 3-7h4 1l-8 10-6 1zm-220 11l2-9h2v8l-2 2h-1zm220 11l1-1 1 4 4 11-3-2-1-2-2-5zm79 12l3-1-5 12-5 5zm-21 25l10-5-15 9 2-3zm151 61l-3-16h2l2 16zm8 5l-1-3 7-4h1z"/>
			<path id="Path 30" class="s6" d="m360 245l-1-6 3 1v5zm24 89l14 1v1l-14-1zm-28 9l7-4-6 5h-1zm89 29l-6-15h2l5 15zm-321-13l2-1-1 8-1 2v-8zm50 14l1-5h1v5h-1zm0 8l1-4 1 4h3v1 1h-2l-2-1zm272 12l2-1-2 9-1-1zm-43 17l10-14v1l-4 9zm-4 2h1v1h-1zm-27 35l-18-6-11-10h1l19 12 4 1 5 2zm26-1l23-9-17 10-26 1v-1h19zm186 3v-1 16z"/>
			<path id="Path 31" class="s7" d="m438 354v-1l3 4h-2zm-70 4l8-4h2v4l-13 6-5 10-4-4 8-10 2-2zm-1 79l2-3 7 1 3 1h1v4z"/>
			<path id="Path 32" class="s8" d="m363 339l6-1 2 2-7 4-5 3h-2v-3zm-21 17l2-1 2 2v2l-3 4-3-2zm72 35v-9h4v12zm-27 25l5-1h2v4l-4 1h-5zm-19 279h4v6l-6 6z"/>
			<path id="Path 33" fill-rule="evenodd" class="s13" d="m378 358v-4h15l5 2 14 11 4 7 2 8h-5l-1-7-7-10-13-7zm-44 14l6-11 3 2-3 7-2 7-2 13 5 20 14 17 10 5h3l1 2-2 3h-4l-11-9-5-5-8-7 1-2-4-6-4-13 1-19 1-3zm97 0v-2l4 1 2 3v4l2 6-1 14-2 3-2-2v-15zm-80 19v-5l3 1 1 7-3 1zm62 0h1l4 3-2 4-3-1zm-55 17l2-5h1l6 8 18 5h2l-2 4h-5l-12-3-4-3-4-2-2-2zm69 7h4l-3 7-12 9-2 2-9 5-25 2v-4h11l12-3 15-9z"/>
			<path id="Path 34" fill-rule="evenodd" class="s9" d="m321 145l11-3h6l1 7-3 1-16 3zm-34 10l24-7 3 7-17 6-15 5 2 6 9 20 2 6 3 8 14-6 28-7 12-2 1 6-3 3-24 5-5 2-18 6 7 17 2 6 3 8-7 3-4-6-5-13-4-10-13 6-7 5-3 2-10 7-18 14 10 13-7 5-10-10-7 9 20 16-6 5h-2l-17-15-7 7-6-4 5-10-24-18-5-4-4-3-16 24-16 28-12 37v1l-3 11-2 8h-8v-3l1-3 17-56 14-26 12-19 11-13 6 1 13 11 21 18 5-4 3-6-5-3-29-29v-4l5-4 7 3-1 3 9 8 2 2 20 19 27-23 25-14-17-40v-9zm-52 29l17-12h4l2 5-15 11-4 2zm-19 14l10-8 6 5-11 9zm115 47l19-4v7l-20 7-9 3-1-8zm-76 54l6-3 3 3-2 7-11 14-13 33-1 3-3 12-1 6-8-1 1-11 6-21 7-16 10-17zm-72 37l12-29 7 2-10 27-5 17-8-1zm-7 29h1l7 2-1 7-7-1zm-52 3l1-2h8l-1 6-2 9-6-3zm226 3l6-1 4 4v2l-2 5-4 2v4l-3-1-2-14z"/>
			<path id="Path 35" class="s10" d="m284 172l-2-6 15-5 2 2-3 4-6-2-2 2-2 1-1 4zm42 33l24-5 3-3h2l1 3-4 2-26 5zm-118-4l3-3h4l-14 14-5 4v4l12 12h-1l-6-3-1-3-2-2-3-2-3-5 9-10 1-1 1-3 1-1zm104 9l9-3v1l-2 4h-7zm-37 19l7-5h3l-7 6zm-13 9l10-7v1l-9 8zm-61 6l-13-11h3l12 11zm13-5v-1l11 11v1l-2-1-2-2zm-26 8v-1l5 4h-1-3zm121 8l1-1 4 7 6-2v1l-7 4zm-59 30l-20-16 7-9 10 10 18 19 7 3v1h-2l-6 1v2 3l-3-3zm-106 3l13-25h1l1 1-14 26zm143-8l13-11h2l-1 3-10 6 1 2h-4zm-79 20l6-10h2l-5 11h-2zm38 9l2-1h1l-10 17h-2l5-8-1-4h4zm-109 35l3-11v9l-1 2h-1zm250-3l2-2 13 2-1 7-2-4-8-2-3-1zm-41 16l11-10h2v2l-6 9-6 1h-1zm53-2l3-2-1-5 5 6 8 2v1h-6v4l4 2 1 3 3 6v2l-4-7-14-11zm-215 12l2-8h2v2l-1 3-1 16-2 3-3-1h-2v-1l4-1v-6zm49 7l1-6h1v5 3l-2 4-3 2v-1zm-111 5l2-1 6 3 1 1-4 3h-5l2-3-2-2zm246 39v-1l12 3v1 1h-1-2l-1 2-3-2-3-2z"/>
			<path id="Path 36" class="s11" d="m311 148l10-3-1 8v1l-4 1h-2zm-3 99l7-3 5 6 1 8v1h-1l-6 2-4-7zm-64 43l6-5 11 11-6 3-7-4-2-2zm160 47l4-3h6l8 5v11l-1 3-7 3-8-2-5-6 1-7zm-227 28l2-13 8 1-1 6-2 8z"/>
			<path id="Path 37" fill-rule="evenodd" class="s0" d="m384 328l6 2-11 1zm-243 3h1v1h-1zm235 29h7l4 5zm-4 12l3-3-3-3 8 2-7 4zm25 31l7-10-2 8zm-39-3h1v1h-1zm6 2l2 4-3-1zm58 28l1 3-3-1zm-25 16h1v1h-1z"/>
			<path id="Path 38" class="s1" d="m431 347h1v1h-1zm-30 32v-2l3 6zm-23 28h-4l-3-5 4 2 3 2zm54 17h1v1h-1zm-1 1h1v1h-1z"/>
			<path id="Path 39" class="s3" d="m367 379v-4l5-3h1l-3 4zm4 23l-4-2-1-5h1z"/>
			<path id="Path 40" class="s4" d="m373 372l7-4h4 4l10 4 3 5v2l-7-3-22 1-2-1zm-6 23l-1-7h4v6zm17 11v-4l10 2z"/>
			<path id="Path 41" class="s6" d="m364 384l3-5-1 9 1 7h-1l-1-2zm20 22l10-2h1l-4 4-13-1v-1z"/>
			<path id="Path 42" class="s9" d="m367 379l3-3 2 1-2 11h-4zm8 25l9-2v4h-6z"/>
			<path id="Path 43" class="s11" d="m372 377l22-1 7 3 3 4v10l-7 10-2 1h-1l-10-2-9 2-4-2-4-7 3-1v-6z"/>
		</g>
	</g>
</svg>